<?xml version="1.0" standalone="no"?>
<!DOCTYPE svg PUBLIC "-//W3C//DTD SVG 20010904//EN"
 "http://www.w3.org/TR/2001/REC-SVG-20010904/DTD/svg10.dtd">
<svg version="1.0" xmlns="http://www.w3.org/2000/svg"
 width="960.000000pt" height="960.000000pt" viewBox="0 0 960.000000 960.000000"
 preserveAspectRatio="xMidYMid meet">

<g transform="translate(0.000000,960.000000) scale(0.100000,-0.100000)"
fill="#000000" stroke="none">
<path d="M4690 8472 c0 -4 5 -13 11 -19 26 -26 4 -198 -56 -418 l-38 -140 16
-76 c15 -73 15 -81 -4 -161 -23 -100 -22 -97 -87 -225 -29 -56 -52 -113 -52
-127 0 -34 20 -76 36 -76 8 0 21 -11 29 -24 13 -20 16 -45 12 -128 -2 -57 -9
-121 -16 -143 -6 -22 -14 -48 -16 -59 -2 -10 -13 -32 -23 -50 -18 -30 -54
-140 -83 -251 -8 -32 -13 -123 -14 -255 -1 -188 -5 -233 -35 -365 -4 -22 -14
-67 -21 -100 -6 -33 -22 -82 -34 -110 -12 -27 -28 -69 -35 -93 -8 -24 -19 -51
-26 -60 -12 -15 -13 -14 -14 11 0 15 5 27 10 27 6 0 10 8 10 19 0 10 7 36 16
56 8 21 14 46 11 55 -2 9 3 27 12 39 13 16 16 40 15 89 -2 44 1 60 6 47 8 -18
9 -18 9 6 1 14 7 31 13 37 10 10 8 14 -10 18 -16 5 -22 14 -22 34 0 16 6 31
13 34 9 3 7 9 -5 19 -22 17 -23 27 -3 27 8 0 15 5 15 10 0 6 -7 10 -15 10 -10
0 -15 10 -15 28 0 32 16 52 42 52 10 0 18 4 18 9 0 12 -56 25 -70 16 -5 -3
-10 1 -10 9 0 8 -11 23 -24 34 -30 23 -44 85 -25 108 10 12 10 17 0 23 -6 4
-11 14 -9 22 2 8 -4 15 -12 15 -8 1 -23 2 -32 3 -25 2 -22 61 4 61 25 0 23 26
-2 33 -16 4 -19 11 -15 30 5 17 2 26 -9 30 -9 4 -16 19 -17 34 l-1 28 -10 -27
c-10 -29 -38 -39 -38 -14 0 8 -21 25 -46 37 -34 17 -44 28 -40 41 4 17 -1 18
-47 12 -29 -3 -57 -7 -64 -9 -7 -2 -15 0 -18 4 -2 5 5 12 18 15 19 5 14 9 -30
24 -47 17 -117 70 -262 199 -33 31 -35 34 -18 47 9 7 17 18 17 24 0 6 6 15 13
19 16 10 147 179 147 190 0 11 -56 -52 -77 -87 -9 -16 -20 -30 -23 -30 -4 0
-24 -25 -46 -55 -21 -30 -44 -55 -51 -55 -10 0 -161 195 -233 300 -33 47 -59
75 -99 105 -41 29 -61 33 -38 7 23 -25 22 -30 -13 -106 -20 -43 -36 -100 -46
-168 -8 -56 -24 -122 -35 -147 -10 -24 -19 -51 -19 -60 -1 -9 -17 -56 -36
-106 -94 -239 -99 -272 -45 -325 40 -41 39 -69 -5 -136 -35 -52 -79 -156 -111
-259 -8 -27 -19 -54 -24 -59 -5 -6 -9 -16 -9 -24 0 -12 -28 -82 -75 -187 -36
-82 -128 -338 -159 -442 -61 -209 -86 -264 -163 -365 -53 -69 -57 -80 -77
-200 -9 -53 -24 -121 -33 -150 -8 -29 -21 -78 -28 -108 -8 -30 -18 -73 -23
-95 -6 -22 -13 -53 -16 -70 -6 -41 -36 -114 -96 -241 -28 -58 -54 -120 -57
-137 -3 -18 -12 -36 -20 -40 -7 -4 -13 -19 -13 -32 0 -13 -5 -27 -10 -30 -6
-3 -19 -27 -31 -52 -11 -24 -38 -74 -60 -109 -21 -35 -39 -69 -39 -74 0 -6 -6
-10 -13 -10 -13 0 -57 -76 -57 -99 0 -6 -7 -11 -15 -11 -9 0 -18 -8 -22 -17
-20 -59 -50 -114 -65 -119 -10 -3 -18 -10 -18 -17 0 -17 -41 -97 -50 -97 -9 0
-23 -39 -20 -59 1 -7 -3 -10 -9 -6 -7 4 -8 0 -5 -10 9 -22 -34 -57 -60 -49
-12 4 -27 11 -34 17 -10 8 -16 7 -23 -4 -12 -19 -11 -29 1 -29 6 0 10 5 10 10
0 14 13 13 33 -3 14 -10 15 -18 6 -50 -5 -20 -14 -37 -19 -37 -6 0 -10 -7 -10
-15 0 -8 -4 -15 -10 -15 -5 0 -10 -6 -10 -14 0 -7 -7 -19 -15 -26 -8 -7 -15
-23 -15 -37 0 -13 -6 -26 -14 -29 -8 -3 -17 -27 -21 -54 -4 -29 -12 -48 -18
-47 -7 1 -13 -10 -15 -25 -2 -16 1 -28 7 -28 6 0 11 9 11 20 0 11 5 20 11 20
6 0 9 -7 6 -15 -4 -8 -2 -17 3 -20 6 -4 10 3 10 14 0 11 8 25 18 30 14 9 14
12 4 19 -11 7 -9 10 5 14 11 3 27 22 37 42 10 21 25 40 34 43 9 4 21 12 25 19
5 9 18 11 36 8 16 -4 32 -1 35 5 4 6 16 11 28 11 17 0 18 3 8 15 -10 12 -9 16
4 21 9 3 16 14 16 23 0 10 8 17 20 17 15 0 20 -7 21 -31 0 -28 1 -28 18 15 15
35 26 47 50 54 32 9 42 26 16 26 -8 0 -15 5 -15 10 0 6 9 10 20 10 11 0 23 7
26 15 7 18 30 20 37 3 8 -18 27 10 27 39 0 12 5 25 10 28 6 4 8 10 5 15 -3 5
4 14 15 20 11 6 20 17 20 25 0 8 5 15 12 15 6 0 18 7 27 15 9 8 33 29 54 46
20 17 37 37 37 45 0 8 6 14 13 14 6 0 25 19 41 41 25 36 32 40 59 35 25 -5 28
-4 17 9 -12 15 -5 39 10 30 11 -7 41 5 35 15 -6 9 24 24 41 21 7 -1 11 7 10
16 0 12 7 19 22 21 12 2 22 10 22 18 0 17 16 19 24 2 3 -9 8 -8 16 5 6 9 19
17 28 17 10 0 38 20 64 45 26 25 52 45 58 45 5 0 10 7 10 15 0 8 9 19 20 25
11 6 20 17 20 25 0 8 5 15 11 15 16 0 38 31 39 53 0 10 4 16 9 12 5 -3 12 -1
16 5 3 5 18 10 32 10 18 0 24 4 19 15 -7 18 3 45 16 45 5 0 6 -10 2 -22 -6
-22 -6 -22 13 -6 11 10 33 18 49 18 l29 1 -30 14 c-29 13 -29 14 -7 20 12 4
22 14 22 21 0 8 7 14 15 14 8 0 15 5 15 10 0 6 9 10 20 10 11 0 20 5 20 10 0
6 7 10 15 10 8 0 15 6 15 14 0 9 7 12 20 9 11 -3 20 0 20 6 0 6 11 11 25 11
16 0 25 6 25 15 0 8 6 15 14 15 8 0 18 5 21 11 14 21 -5 21 -45 0 -40 -20 -60
-21 -60 0 0 5 9 9 20 9 11 0 20 3 20 8 0 4 14 13 31 21 17 7 33 21 37 29 3 9
41 53 83 97 43 44 91 95 107 113 33 36 53 42 45 12 -4 -15 -2 -19 10 -14 9 3
19 14 22 24 3 10 22 33 41 49 19 17 30 31 24 31 -5 0 -10 6 -10 14 0 9 7 12
19 9 13 -3 27 6 46 31 15 20 31 36 35 36 9 0 90 77 90 86 0 4 24 31 54 59 29
28 61 63 71 78 9 15 24 27 31 27 8 0 14 6 14 14 0 8 8 17 18 21 9 3 28 21 42
40 14 19 33 37 43 40 9 4 17 13 17 21 0 8 7 14 15 14 9 0 18 7 21 15 4 10 13
13 26 9 16 -5 19 -2 14 13 -5 15 0 18 32 18 20 0 37 5 37 10 2 27 18 55 32 55
11 0 14 6 10 21 -4 16 -2 19 10 15 12 -5 14 -1 10 15 -3 13 2 28 14 40 10 10
19 22 19 27 0 4 14 16 30 27 16 11 30 25 30 32 0 23 32 45 57 38 16 -4 25 -1
29 10 4 8 12 15 20 15 7 0 21 14 29 31 10 19 22 29 30 25 10 -3 12 0 8 11 -4
11 -2 14 5 9 7 -4 12 -3 12 2 0 14 43 58 63 65 9 4 17 11 17 17 0 5 7 10 16
10 11 0 14 6 10 23 -3 12 -3 16 0 10 9 -20 24 -15 24 8 0 12 11 30 25 41 14
11 25 25 25 32 0 7 11 25 25 40 24 26 33 56 17 56 -9 0 -172 -172 -185 -195
-9 -16 -27 -20 -27 -6 0 9 40 57 96 116 17 17 34 39 37 49 4 9 10 16 14 15 21
-3 33 2 33 16 0 8 9 19 20 25 11 6 19 16 17 22 -1 6 4 13 11 15 15 6 16 -19 0
-35 -8 -8 -8 -12 -1 -12 6 0 16 7 23 15 7 8 21 15 32 15 17 0 18 2 8 15 -9 11
-16 12 -25 5 -9 -8 -14 -6 -19 6 -7 19 -8 17 22 33 12 6 22 18 22 26 0 8 7 15
15 15 8 0 15 7 15 15 0 8 9 19 20 25 11 6 23 22 26 35 3 14 10 25 15 25 5 0
20 18 34 40 14 23 33 44 42 47 9 4 31 22 47 42 17 19 37 39 44 45 34 29 292
289 327 331 22 26 51 60 65 74 14 14 54 62 90 106 36 44 68 81 72 83 10 5 68
62 68 67 0 13 74 73 83 68 6 -3 7 -1 3 5 -6 11 5 23 87 95 11 9 26 17 34 17 7
0 16 7 20 15 3 9 17 22 32 30 27 14 155 137 253 244 79 85 36 58 -59 -38 -128
-128 -204 -191 -229 -191 -26 0 -59 39 -239 283 -61 82 -159 215 -219 295
-125 168 -245 336 -358 502 -88 128 -186 243 -232 271 -31 19 -76 26 -76 11z
m-545 -1891 c3 -5 1 -12 -5 -16 -5 -3 -10 -23 -10 -43 0 -26 -3 -33 -11 -25
-11 11 -20 72 -12 86 6 10 31 9 38 -2z m165 -601 c-20 -13 -33 -13 -25 0 3 6
14 10 23 10 15 0 15 -2 2 -10z m-10 -130 c0 -5 -2 -10 -4 -10 -3 0 -8 5 -11
10 -3 6 -1 10 4 10 6 0 11 -4 11 -10z m106 -307 c-11 -11 -19 6 -11 24 8 17 8
17 12 0 3 -10 2 -21 -1 -24z m-166 13 c0 -8 -3 -16 -7 -18 -5 -1 -21 -21 -37
-42 -17 -22 -32 -34 -34 -27 -2 6 8 23 22 37 14 14 28 35 31 45 7 22 25 26 25
5z m130 -51 c0 -8 -7 -15 -15 -15 -8 0 -17 -11 -21 -25 -3 -14 -10 -25 -15
-25 -5 0 -9 11 -9 25 0 16 6 25 15 25 8 0 15 7 15 15 0 8 7 15 15 15 8 0 15
-7 15 -15z m-220 -59 c0 -2 -7 -6 -15 -10 -8 -3 -15 -1 -15 4 0 6 7 10 15 10
8 0 15 -2 15 -4z m150 -26 c0 -5 -7 -10 -15 -10 -8 0 -15 5 -15 10 0 6 7 10
15 10 8 0 15 -4 15 -10z m-273 -302 c-3 -8 -6 -5 -6 6 -1 11 2 17 5 13 3 -3 4
-12 1 -19z m-427 -378 c0 -5 -5 -10 -11 -10 -5 0 -7 5 -4 10 3 6 8 10 11 10 2
0 4 -4 4 -10z m-120 -130 c0 -5 -4 -10 -10 -10 -5 0 -10 5 -10 10 0 6 5 10 10
10 6 0 10 -4 10 -10z m-927 -819 c-6 -3 -14 -16 -17 -29 -6 -17 -11 -20 -21
-12 -10 8 -7 16 14 39 14 16 28 24 30 19 2 -6 -1 -13 -6 -17z m-53 -61 c0 -5
-9 -10 -20 -10 -11 0 -20 5 -20 10 0 6 9 10 20 10 11 0 20 -4 20 -10z m-123
-36 c-3 -3 -12 -4 -19 -1 -8 3 -5 6 6 6 11 1 17 -2 13 -5z m-37 -38 c0 -3 -4
-8 -10 -11 -5 -3 -10 -1 -10 4 0 6 5 11 10 11 6 0 10 -2 10 -4z m-450 -350 c0
-11 -19 -15 -25 -6 -3 5 1 10 9 10 9 0 16 -2 16 -4z m-173 -132 c-3 -3 -12 -4
-19 -1 -8 3 -5 6 6 6 11 1 17 -2 13 -5z m13 -53 c0 -6 -4 -13 -10 -16 -5 -3
-10 1 -10 9 0 9 5 16 10 16 6 0 10 -4 10 -9z m-44 -57 c-4 -9 -9 -15 -11 -12
-3 3 -3 13 1 22 4 9 9 15 11 12 3 -3 3 -13 -1 -22z"/>
<path d="M4616 8451 c-4 -7 -5 -15 -2 -18 9 -9 19 4 14 18 -4 11 -6 11 -12 0z"/>
<path d="M4571 8398 c-5 -13 -7 -25 -5 -27 7 -7 34 21 34 35 0 22 -20 16 -29
-8z"/>
<path d="M4544 8352 c-6 -4 -26 -29 -45 -56 -48 -68 -68 -95 -117 -160 -24
-31 -42 -62 -40 -67 2 -6 21 15 43 47 22 32 46 65 53 74 8 8 33 42 58 75 24
33 49 66 55 73 13 15 8 24 -7 14z"/>
<path d="M4225 7919 c-11 -17 1 -21 15 -4 8 9 8 15 2 15 -6 0 -14 -5 -17 -11z"/>
<path d="M4072 7690 c-18 -29 -15 -38 4 -12 9 13 14 25 12 27 -2 2 -9 -5 -16
-15z"/>
<path d="M4010 7595 c-7 -9 -10 -18 -7 -21 3 -3 10 4 17 15 13 25 8 27 -10 6z"/>
<path d="M6390 7561 l25 -7 -3 -159 c-2 -88 -8 -191 -13 -230 -18 -128 -5
-300 30 -408 11 -32 10 -39 -9 -65 -25 -34 -43 -153 -34 -222 13 -102 31 -131
117 -184 67 -43 65 -67 -18 -187 -118 -171 -134 -197 -145 -240 -6 -23 -9 -52
-6 -65 4 -13 6 -25 5 -26 -1 -2 10 -25 24 -53 15 -27 27 -54 27 -59 0 -5 -12
-25 -27 -44 -16 -20 -46 -59 -68 -87 -126 -162 -212 -263 -311 -365 -126 -130
-152 -174 -183 -306 -25 -108 -34 -131 -113 -289 -67 -134 -74 -143 -162 -235
-34 -36 -80 -87 -101 -115 -22 -27 -43 -52 -46 -55 -34 -30 -201 -300 -219
-355 -50 -157 -191 -341 -375 -490 -100 -81 -131 -112 -197 -200 -70 -92 -265
-287 -340 -339 -36 -25 -72 -52 -80 -59 -7 -6 -29 -25 -48 -41 -36 -29 -43
-35 -250 -226 -110 -101 -187 -169 -294 -260 -17 -14 -95 -89 -175 -167 -79
-79 -148 -143 -153 -143 -4 0 -8 -7 -8 -15 0 -8 -4 -15 -9 -15 -5 0 -24 -15
-42 -33 -38 -38 -162 -146 -219 -192 -146 -117 -254 -207 -308 -257 -34 -32
-90 -76 -125 -97 -34 -22 -69 -47 -78 -56 -9 -8 -19 -15 -24 -15 -11 0 -115
-107 -115 -119 0 -14 -60 -29 -97 -24 -29 5 -30 3 -25 -22 3 -20 9 -25 23 -22
11 3 16 0 12 -8 -4 -13 34 -42 49 -37 3 1 21 -12 38 -28 31 -29 58 -41 45 -20
-3 6 -1 10 5 10 6 0 10 -7 8 -16 -3 -16 51 -47 302 -176 553 -285 1063 -442
1631 -504 201 -21 664 -30 826 -15 425 40 888 134 1203 244 334 116 606 246
865 412 28 17 57 34 65 37 13 5 255 170 285 195 6 5 42 30 80 58 59 41 150
113 191 150 129 118 328 313 398 391 75 83 256 312 316 399 139 205 221 326
236 354 10 18 24 41 29 50 177 284 382 838 469 1266 l14 70 -27 34 c-49 63
-135 177 -280 370 -128 169 -161 207 -161 185 0 -4 15 -25 33 -48 43 -54 69
-96 60 -96 -5 0 -24 24 -43 52 -30 45 -114 155 -180 238 -24 31 -25 41 -3 33
12 -5 14 -3 8 8 -24 39 -174 232 -470 600 -261 326 -325 403 -325 391 0 -4 9
-18 21 -31 28 -30 149 -189 149 -196 0 -24 -40 20 -135 151 -11 15 -25 32 -30
38 -6 6 -44 51 -85 101 -87 104 -112 133 -163 189 -20 22 -54 66 -75 96 -20
30 -45 64 -54 74 -10 11 -18 23 -18 27 0 4 -14 21 -30 39 -17 18 -28 35 -26
38 6 5 66 -56 66 -68 0 -4 9 -18 20 -31 11 -13 23 -29 27 -34 18 -23 89 -112
109 -135 166 -194 208 -241 203 -224 -2 7 -51 70 -109 140 -390 477 -373 455
-585 769 -93 138 -174 256 -182 263 -7 7 -20 26 -30 42 -9 17 -21 31 -25 31
-4 1 -14 2 -20 3 -7 1 -12 10 -11 21 2 11 -7 31 -18 45 -15 17 -19 20 -15 7 3
-11 2 -16 -5 -12 -5 4 -7 15 -4 26 4 11 2 19 -4 19 -6 0 -11 -6 -11 -12 0 -9
-4 -8 -10 2 -13 20 -13 33 0 25 6 -3 10 -2 10 3 0 13 -37 44 -42 35 -3 -4 -3
-3 -2 4 3 13 -120 193 -237 349 -89 118 -141 164 -183 163 -30 -1 -30 -1 -6
-8z m55 -41 c3 -6 -1 -7 -9 -4 -18 7 -21 14 -7 14 6 0 13 -4 16 -10z m595
-785 c0 -5 -11 5 -25 21 -14 16 -25 33 -25 37 0 5 11 -5 25 -21 14 -17 25 -33
25 -37z m25 -35 c3 -5 1 -10 -4 -10 -6 0 -11 5 -11 10 0 6 2 10 4 10 3 0 8 -4
11 -10z m25 -30 c0 -5 -4 -10 -10 -10 -5 0 -10 5 -10 10 0 6 5 10 10 10 6 0
10 -4 10 -10z m15 -30 c3 -5 1 -10 -4 -10 -6 0 -11 5 -11 10 0 6 2 10 4 10 3
0 8 -4 11 -10z m45 -68 c0 -5 8 -17 18 -28 18 -20 35 -45 71 -109 21 -36 21
-37 2 -15 -11 14 -23 33 -27 43 -3 9 -10 17 -15 17 -5 0 -9 5 -9 11 0 6 -6 16
-12 24 -23 23 -48 55 -48 60 0 3 5 5 10 5 6 0 10 -4 10 -8z m189 -285 c0 -7
-5 -2 -11 11 -6 12 -14 22 -18 22 -5 0 -11 8 -14 18 -4 10 4 6 19 -11 14 -15
25 -33 24 -40z m34 -37 c3 -11 1 -18 -4 -14 -5 3 -9 12 -9 20 0 20 7 17 13 -6z
m52 -67 l28 -38 -31 29 c-18 17 -32 33 -32 38 0 15 7 9 35 -29z m665 -812 c0
-5 16 -29 36 -53 19 -23 41 -51 49 -60 26 -32 48 -69 43 -73 -5 -5 -136 159
-145 181 -3 8 0 14 6 14 6 0 11 -4 11 -9z m180 -248 c-1 -11 -40 37 -40 49 0
6 9 -1 20 -15 11 -14 20 -29 20 -34z m40 -45 c0 -6 -7 -5 -15 2 -8 7 -15 17
-15 22 0 6 7 5 15 -2 8 -7 15 -17 15 -22z m36 -45 c-7 -7 -26 7 -26 19 0 6 6
6 15 -2 9 -7 13 -15 11 -17z m28 -29 c5 -14 4 -15 -9 -4 -17 14 -19 20 -6 20
5 0 12 -7 15 -16z m84 -109 c-3 -3 -18 11 -33 32 l-28 38 34 -32 c18 -18 30
-35 27 -38z m550 -726 c19 -30 8 -34 -12 -4 -9 14 -13 25 -9 25 5 0 14 -9 21
-21z m109 -146 c44 -61 81 -106 109 -135 10 -10 15 -20 12 -23 -4 -5 -33 27
-95 105 -6 8 -32 41 -57 72 -25 31 -46 63 -46 70 1 14 13 0 77 -89z"/>
<path d="M6225 7475 c-37 -36 -63 -65 -56 -65 13 0 96 76 117 108 23 35 10 26
-61 -43z"/>
<path d="M3936 7483 c-6 -14 -5 -15 5 -6 7 7 10 15 7 18 -3 3 -9 -2 -12 -12z"/>
<path d="M3900 7430 c-6 -11 -8 -20 -6 -20 3 0 10 9 16 20 6 11 8 20 6 20 -3
0 -10 -9 -16 -20z"/>
<path d="M6362 7390 c0 -19 2 -27 5 -17 2 9 2 25 0 35 -3 9 -5 1 -5 -18z"/>
<path d="M3865 7379 c-4 -6 -5 -12 -2 -15 2 -3 7 2 10 11 7 17 1 20 -8 4z"/>
<path d="M6215 7350 c4 -6 1 -17 -5 -25 -17 -21 -2 -58 21 -52 10 3 19 1 19
-4 0 -5 9 -9 20 -9 13 0 18 5 14 15 -4 8 -16 15 -29 15 -14 0 -25 7 -28 20 -3
11 -1 20 4 20 5 0 9 7 9 15 0 8 -7 15 -16 15 -8 0 -12 -5 -9 -10z"/>
<path d="M6260 7325 c0 -8 5 -15 10 -15 6 0 10 7 10 15 0 8 -4 15 -10 15 -5 0
-10 -7 -10 -15z"/>
<path d="M3785 7270 c-10 -11 -16 -22 -13 -25 3 -3 13 6 22 20 20 30 16 32 -9
5z"/>
<path d="M6224 7239 c-2 -4 0 -10 6 -14 5 -3 7 -25 3 -51 -4 -34 -2 -48 8 -55
11 -7 11 -9 1 -9 -10 0 -12 -8 -7 -31 5 -23 3 -34 -11 -43 -23 -17 -3 -29 28
-17 12 6 18 10 13 10 -17 1 -18 70 -1 77 11 4 12 12 1 48 -13 42 -12 44 11 55
13 6 24 15 24 20 0 11 -69 20 -76 10z"/>
<path d="M6270 7191 c0 -6 5 -13 10 -16 6 -3 10 1 10 9 0 9 -4 16 -10 16 -5 0
-10 -4 -10 -9z"/>
<path d="M6134 7101 c-20 -38 -36 -54 -65 -65 -22 -9 -46 -16 -54 -16 -20 0
-19 -24 1 -41 22 -18 15 -100 -13 -160 -20 -43 -38 -98 -35 -111 1 -3 -5 -12
-13 -18 -20 -17 -19 -30 3 -31 13 0 12 -3 -6 -11 -15 -8 -24 -23 -28 -50 -4
-21 -10 -38 -14 -38 -4 0 -13 -15 -21 -32 -7 -18 -23 -43 -35 -54 -15 -15 -21
-29 -17 -43 4 -15 1 -21 -12 -21 -11 0 -15 5 -11 16 3 8 2 12 -4 9 -6 -3 -8
-16 -4 -28 3 -16 -3 -32 -21 -52 -14 -17 -44 -61 -67 -100 -23 -38 -54 -90
-69 -115 -15 -25 -44 -81 -65 -125 -22 -44 -42 -81 -46 -83 -5 -2 -8 -8 -8
-14 0 -6 -20 -35 -45 -64 -25 -28 -45 -55 -45 -59 0 -5 -8 -14 -17 -21 -14
-11 -15 -13 -3 -13 24 1 87 27 67 28 -25 1 -11 21 14 21 11 0 18 4 15 9 -10
16 6 41 26 41 14 0 18 5 14 18 -3 9 2 28 10 42 9 14 13 17 10 8 -3 -10 -1 -18
4 -18 6 0 10 12 10 26 0 14 4 23 9 20 10 -7 37 30 43 59 2 11 10 19 16 17 7
-1 15 11 18 27 4 17 14 31 24 34 11 3 20 16 22 33 2 20 8 29 21 28 9 -1 17 5
17 13 0 19 25 43 45 43 11 0 15 6 10 19 -3 12 0 21 10 25 8 3 15 14 15 25 0
10 7 22 16 25 8 3 13 10 10 14 -3 5 8 22 24 37 20 19 30 39 30 58 0 23 3 27
19 22 14 -4 20 0 23 19 4 19 1 23 -11 19 -15 -4 -15 -3 0 9 19 15 54 79 51 91
-1 5 4 20 12 35 8 15 19 54 26 87 6 33 16 74 21 90 6 17 12 36 13 44 2 8 11
17 21 21 14 5 19 17 19 50 1 37 4 43 24 45 12 1 22 -3 22 -8 0 -6 3 -7 7 -3 4
4 -2 15 -15 24 -20 16 -21 20 -10 57 6 22 10 47 9 54 -2 12 0 12 11 4 7 -7 15
-24 16 -39 2 -32 8 -40 14 -22 6 20 -13 138 -22 138 -5 0 -21 -22 -36 -49z
m-4 -61 c0 -5 -5 -10 -11 -10 -5 0 -7 5 -4 10 3 6 8 10 11 10 2 0 4 -4 4 -10z
m-30 -44 c0 -3 -4 -8 -10 -11 -5 -3 -10 -1 -10 4 0 6 5 11 10 11 6 0 10 -2 10
-4z"/>
<path d="M2729 7013 c-13 -16 -12 -17 4 -4 9 7 17 15 17 17 0 8 -8 3 -21 -13z"/>
<path d="M6150 6991 c0 -5 5 -13 10 -16 6 -3 10 -2 10 4 0 5 -4 13 -10 16 -5
3 -10 2 -10 -4z"/>
<path d="M6219 6996 c0 -1 -2 -10 -3 -21 -2 -11 -6 -30 -10 -42 -8 -26 9 -40
19 -15 7 16 8 15 15 -3 6 -14 9 -6 9 31 1 39 -3 51 -14 51 -8 0 -15 -1 -16 -1z"/>
<path d="M2691 6968 c-14 -23 -14 -23 8 -4 22 20 25 26 13 26 -4 0 -13 -10
-21 -22z"/>
<path d="M5810 6939 c0 -5 5 -7 10 -4 6 3 10 8 10 11 0 2 -4 4 -10 4 -5 0 -10
-5 -10 -11z"/>
<path d="M2640 6914 c0 -5 -14 -25 -31 -43 -16 -18 -28 -35 -26 -38 3 -2 19
14 37 37 18 23 30 44 26 47 -3 4 -6 2 -6 -3z"/>
<path d="M6291 6904 c0 -11 3 -14 6 -6 3 7 2 16 -1 19 -3 4 -6 -2 -5 -13z"/>
<path d="M6200 6880 c-8 -5 -11 -12 -7 -17 5 -4 12 -1 17 7 6 8 10 11 10 6 0
-6 -10 -20 -22 -33 -12 -13 -18 -26 -15 -30 12 -11 47 29 47 54 0 25 -7 28
-30 13z"/>
<path d="M6140 6829 c0 -5 5 -7 10 -4 6 3 10 8 10 11 0 2 -4 4 -10 4 -5 0 -10
-5 -10 -11z"/>
<path d="M2547 6802 c-19 -20 -23 -37 -7 -27 10 6 33 45 27 45 -2 0 -11 -8
-20 -18z"/>
<path d="M6090 6800 c-8 -5 -10 -10 -4 -10 8 0 10 -24 9 -72 -2 -51 1 -75 11
-85 18 -19 18 -48 -1 -67 -20 -19 -19 -28 3 -24 9 2 22 12 29 23 14 22 18 79
5 71 -4 -2 -14 -1 -21 3 -10 6 -11 25 -6 75 4 36 11 66 16 66 5 0 9 7 9 15 0
17 -27 20 -50 5z"/>
<path d="M4100 6785 c-8 -9 -8 -15 -2 -15 12 0 26 19 19 26 -2 2 -10 -2 -17
-11z"/>
<path d="M6170 6779 c0 -12 4 -18 11 -13 6 3 15 1 19 -6 5 -7 8 -2 8 14 0 19
-6 26 -19 26 -13 0 -19 -7 -19 -21z"/>
<path d="M4027 6763 c-4 -3 -7 -13 -7 -22 1 -13 4 -12 16 4 12 17 16 18 24 5
5 -8 12 -11 15 -8 4 4 4 11 0 17 -7 12 -38 15 -48 4z"/>
<path d="M2490 6735 c-8 -9 -8 -15 -2 -15 12 0 26 19 19 26 -2 2 -10 -2 -17
-11z"/>
<path d="M6170 6725 c-7 -9 -10 -18 -6 -22 3 -3 6 -1 6 6 0 7 5 9 10 6 6 -3
10 1 10 9 0 20 -4 20 -20 1z"/>
<path d="M2450 6690 c-6 -11 -7 -20 -3 -20 5 0 14 9 21 20 7 11 8 20 2 20 -5
0 -14 -9 -20 -20z"/>
<path d="M4020 6700 c0 -5 5 -10 10 -10 6 0 10 5 10 10 0 6 -4 10 -10 10 -5 0
-10 -4 -10 -10z"/>
<path d="M5621 6674 c0 -11 3 -14 6 -6 3 7 2 16 -1 19 -3 4 -6 -2 -5 -13z"/>
<path d="M6140 6679 c-13 -8 -13 -10 0 -19 21 -14 30 -12 30 4 0 20 -13 27
-30 15z"/>
<path d="M6230 6669 c0 -5 5 -7 10 -4 6 3 10 8 10 11 0 2 -4 4 -10 4 -5 0 -10
-5 -10 -11z"/>
<path d="M2410 6645 c-8 -9 -8 -15 -2 -15 12 0 26 19 19 26 -2 2 -10 -2 -17
-11z"/>
<path d="M4290 6630 c0 -5 7 -10 15 -10 8 0 15 5 15 10 0 6 -7 10 -15 10 -8 0
-15 -4 -15 -10z"/>
<path d="M2354 6579 c-16 -16 -22 -28 -14 -24 13 5 56 55 47 55 -2 0 -16 -14
-33 -31z"/>
<path d="M4250 6600 c0 -5 5 -10 10 -10 6 0 10 5 10 10 0 6 -4 10 -10 10 -5 0
-10 -4 -10 -10z"/>
<path d="M5486 6601 c-4 -7 -5 -15 -2 -18 9 -9 19 4 14 18 -4 11 -6 11 -12 0z"/>
<path d="M5315 6490 c-3 -5 -2 -10 4 -10 5 0 13 5 16 10 3 6 2 10 -4 10 -5 0
-13 -4 -16 -10z"/>
<path d="M4175 6480 c-3 -5 1 -10 9 -10 9 0 16 5 16 10 0 6 -4 10 -9 10 -6 0
-13 -4 -16 -10z"/>
<path d="M5280 6445 c0 -8 2 -15 4 -15 2 0 6 7 10 15 3 8 1 15 -4 15 -6 0 -10
-7 -10 -15z"/>
<path d="M2211 6408 c-14 -23 -14 -23 8 -4 22 20 25 26 13 26 -4 0 -13 -10
-21 -22z"/>
<path d="M5223 6397 c-13 -13 -23 -29 -23 -36 0 -7 14 1 30 19 17 18 30 34 30
36 0 10 -17 1 -37 -19z"/>
<path d="M5752 6381 c-15 -16 -35 -44 -45 -62 l-18 -34 23 30 c13 16 30 37 38
45 27 29 43 50 35 50 -4 0 -19 -13 -33 -29z"/>
<path d="M5930 6389 c0 -5 5 -7 10 -4 6 3 10 8 10 11 0 2 -4 4 -10 4 -5 0 -10
-5 -10 -11z"/>
<path d="M2176 6363 c-6 -14 -5 -15 5 -6 7 7 10 15 7 18 -3 3 -9 -2 -12 -12z"/>
<path d="M5910 6355 c0 -9 5 -15 11 -13 6 2 11 8 11 13 0 5 -5 11 -11 13 -6 2
-11 -4 -11 -13z"/>
<path d="M4296 6351 c-4 -5 -2 -12 3 -15 5 -4 12 -2 15 3 4 5 2 12 -3 15 -5 4
-12 2 -15 -3z"/>
<path d="M4251 6341 c-16 -10 -6 -31 15 -31 8 0 14 -9 14 -20 0 -19 11 -26 23
-14 4 4 -30 74 -36 74 -1 0 -8 -4 -16 -9z"/>
<path d="M2104 6282 c-27 -33 -85 -105 -129 -162 -44 -57 -99 -128 -122 -157
-24 -29 -43 -57 -43 -61 0 -5 -9 -17 -21 -28 -11 -10 -25 -28 -30 -39 -16 -33
44 39 209 253 195 253 195 252 189 252 -2 0 -26 -26 -53 -58z"/>
<path d="M5116 6290 c-28 -28 -55 -50 -60 -50 -6 0 -4 -4 3 -9 11 -7 21 -2 38
17 13 15 23 30 23 35 0 4 6 7 13 7 12 0 47 34 47 45 0 13 -19 0 -64 -45z"/>
<path d="M5870 6270 c-12 -8 -11 -10 8 -10 12 0 22 5 22 10 0 13 -11 13 -30 0z"/>
<path d="M4346 6174 c-11 -28 -6 -38 9 -18 8 10 15 22 15 27 0 13 -18 7 -24
-9z"/>
<path d="M5798 6153 c7 -3 16 -2 19 1 4 3 -2 6 -13 5 -11 0 -14 -3 -6 -6z"/>
<path d="M5768 6133 c7 -3 16 -2 19 1 4 3 -2 6 -13 5 -11 0 -14 -3 -6 -6z"/>
<path d="M4345 6120 c3 -5 8 -10 11 -10 2 0 4 5 4 10 0 6 -5 10 -11 10 -5 0
-7 -4 -4 -10z"/>
<path d="M5015 6080 c-4 -6 -11 -8 -16 -5 -5 4 -9 -1 -9 -9 0 -22 13 -20 28 4
7 11 10 20 8 20 -3 0 -8 -5 -11 -10z"/>
<path d="M4332 6049 c-7 -11 -11 -24 -8 -27 10 -9 28 15 24 32 -2 14 -5 13
-16 -5z"/>
<path d="M4853 6029 c-25 -9 -30 -19 -10 -19 15 0 43 17 37 23 -3 3 -15 1 -27
-4z"/>
<path d="M6207 5953 c-4 -3 -7 -11 -7 -17 0 -6 5 -5 12 2 6 6 9 14 7 17 -3 3
-9 2 -12 -2z"/>
<path d="M4736 5904 c-6 -15 -4 -15 11 -3 10 7 20 15 22 16 2 2 -3 3 -11 3 -9
0 -19 -7 -22 -16z"/>
<path d="M5720 5859 c0 -5 5 -7 10 -4 6 3 10 8 10 11 0 2 -4 4 -10 4 -5 0 -10
-5 -10 -11z"/>
<path d="M5696 5825 c-3 -8 -1 -15 4 -15 6 0 10 7 10 15 0 8 -2 15 -4 15 -2 0
-6 -7 -10 -15z"/>
<path d="M6025 5814 c-28 -30 -32 -46 -10 -38 8 3 13 9 12 14 -1 4 9 17 22 29
13 12 19 21 12 21 -7 0 -23 -12 -36 -26z"/>
<path d="M5670 5779 c0 -5 5 -7 10 -4 6 3 10 8 10 11 0 2 -4 4 -10 4 -5 0 -10
-5 -10 -11z"/>
<path d="M1689 5748 c-12 -23 -12 -23 10 -4 23 21 26 26 11 26 -5 0 -15 -10
-21 -22z"/>
<path d="M5827 5618 c-76 -78 -136 -143 -133 -145 2 -3 26 18 53 46 27 28 55
51 61 51 7 0 12 5 12 10 0 6 36 45 80 88 75 73 91 93 73 91 -5 0 -70 -64 -146
-141z"/>
<path d="M5380 5714 c0 -8 5 -12 10 -9 6 3 10 10 10 16 0 5 -4 9 -10 9 -5 0
-10 -7 -10 -16z"/>
<path d="M1641 5685 c-17 -20 -31 -39 -31 -43 0 -7 30 25 59 61 25 31 4 18
-28 -18z"/>
<path d="M4865 5630 c-3 -5 -1 -10 4 -10 6 0 11 5 11 10 0 6 -2 10 -4 10 -3 0
-8 -4 -11 -10z"/>
<path d="M1570 5588 c-12 -22 -12 -22 6 -6 10 10 15 20 12 24 -4 3 -12 -5 -18
-18z"/>
<path d="M1649 5573 c-13 -16 -12 -17 4 -4 9 7 17 15 17 17 0 8 -8 3 -21 -13z"/>
<path d="M5326 5572 c-3 -6 -1 -14 5 -17 14 -9 20 -2 10 14 -6 8 -11 9 -15 3z"/>
<path d="M1517 5523 c-15 -20 -25 -39 -22 -41 3 -3 6 -3 8 -1 2 2 15 21 30 42
16 20 24 37 20 37 -4 -1 -20 -17 -36 -37z"/>
<path d="M1602 5520 c-7 -11 -8 -20 -3 -20 9 0 24 30 18 36 -1 2 -8 -6 -15
-16z"/>
<path d="M1477 5463 c-4 -3 -7 -11 -7 -17 0 -6 5 -5 12 2 6 6 9 14 7 17 -3 3
-9 2 -12 -2z"/>
<path d="M1436 5414 c-5 -14 -4 -15 9 -4 17 14 19 20 6 20 -5 0 -12 -7 -15
-16z"/>
<path d="M5216 5393 c-6 -14 -5 -15 5 -6 7 7 10 15 7 18 -3 3 -9 -2 -12 -12z"/>
<path d="M1396 5355 c-15 -19 -23 -35 -19 -35 4 0 18 16 31 35 29 45 22 45
-12 0z"/>
<path d="M4257 5345 c-9 -23 8 -26 26 -4 16 18 16 19 -2 19 -10 0 -21 -7 -24
-15z"/>
<path d="M5566 5351 c-4 -7 -5 -15 -2 -18 9 -9 19 4 14 18 -4 11 -6 11 -12 0z"/>
<path d="M1342 5287 c-12 -13 -22 -27 -22 -33 0 -5 11 4 25 20 14 16 25 31 25
33 0 7 -8 2 -28 -20z"/>
<path d="M4190 5280 c0 -5 7 -10 16 -10 8 0 12 5 9 10 -3 6 -10 10 -16 10 -5
0 -9 -4 -9 -10z"/>
<path d="M5990 5239 c0 -5 5 -7 10 -4 6 3 10 8 10 11 0 2 -4 4 -10 4 -5 0 -10
-5 -10 -11z"/>
<path d="M1300 5229 c0 -5 5 -7 10 -4 6 3 10 8 10 11 0 2 -4 4 -10 4 -5 0 -10
-5 -10 -11z"/>
<path d="M5945 5200 c-3 -5 -2 -10 4 -10 5 0 13 5 16 10 3 6 2 10 -4 10 -5 0
-13 -4 -16 -10z"/>
<path d="M4850 5189 c0 -5 5 -7 10 -4 6 3 10 8 10 11 0 2 -4 4 -10 4 -5 0 -10
-5 -10 -11z"/>
<path d="M4266 5174 c-18 -17 -20 -24 -8 -24 4 0 13 9 20 20 15 24 9 26 -12 4z"/>
<path d="M1250 5165 c-7 -9 -10 -18 -7 -21 3 -3 10 4 17 15 13 25 8 27 -10 6z"/>
<path d="M4216 5108 c-18 -25 -13 -37 6 -16 13 14 22 38 14 38 -3 0 -12 -10
-20 -22z"/>
<path d="M1200 5105 c-7 -9 -11 -18 -8 -20 3 -3 11 1 18 10 7 9 11 18 8 20 -3
3 -11 -1 -18 -10z"/>
<path d="M2100 5105 c-7 -8 -8 -15 -2 -15 5 0 15 7 22 15 7 8 8 15 2 15 -5 0
-15 -7 -22 -15z"/>
<path d="M4120 5089 c0 -5 5 -7 10 -4 6 3 10 8 10 11 0 2 -4 4 -10 4 -5 0 -10
-5 -10 -11z"/>
<path d="M5300 5089 c0 -5 5 -7 10 -4 6 3 10 8 10 11 0 2 -4 4 -10 4 -5 0 -10
-5 -10 -11z"/>
<path d="M1150 5037 c-33 -39 -43 -57 -33 -57 9 0 67 80 62 84 -2 2 -15 -10
-29 -27z"/>
<path d="M4180 5058 c0 -9 -6 -18 -12 -21 -7 -2 -11 -7 -8 -10 3 -3 14 1 24 9
16 11 17 17 8 26 -9 9 -12 8 -12 -4z"/>
<path d="M2050 5040 c0 -5 5 -10 10 -10 6 0 10 5 10 10 0 6 -4 10 -10 10 -5 0
-10 -4 -10 -10z"/>
<path d="M3952 5028 c-16 -16 -15 -48 2 -48 9 0 12 7 9 20 -4 15 0 20 16 20
11 0 21 5 21 10 0 14 -33 13 -48 -2z"/>
<path d="M5220 5025 c-7 -9 -8 -15 -2 -15 5 0 12 7 16 15 3 8 4 15 2 15 -2 0
-9 -7 -16 -15z"/>
<path d="M5130 4955 c-7 -9 -11 -18 -8 -20 3 -3 11 1 18 10 7 9 11 18 8 20 -3
3 -11 -1 -18 -10z"/>
<path d="M3890 4945 c0 -8 2 -15 4 -15 2 0 6 7 10 15 3 8 1 15 -4 15 -6 0 -10
-7 -10 -15z"/>
<path d="M1044 4903 c-32 -41 -54 -75 -37 -58 38 38 84 95 76 95 -5 0 -23 -17
-39 -37z"/>
<path d="M4770 4920 c0 -5 5 -10 10 -10 6 0 10 5 10 10 0 6 -4 10 -10 10 -5 0
-10 -4 -10 -10z"/>
<path d="M5075 4902 c-11 -9 -29 -28 -40 -42 -13 -17 -7 -14 20 10 22 19 42
36 44 38 2 1 2 4 0 6 -2 3 -13 -3 -24 -12z"/>
<path d="M3831 4899 c-1 -9 -8 -19 -16 -23 -17 -6 -21 -26 -5 -26 13 0 32 38
26 53 -2 7 -5 5 -5 -4z"/>
<path d="M3640 4689 c-80 -83 -147 -156 -149 -162 -4 -15 15 3 174 163 72 72
132 135 133 140 10 29 -27 -4 -158 -141z"/>
<path d="M975 4819 c-4 -6 -5 -12 -2 -15 2 -3 7 2 10 11 7 17 1 20 -8 4z"/>
<path d="M4983 4811 c-13 -11 -23 -24 -23 -31 0 -6 11 1 25 16 36 39 35 46 -2
15z"/>
<path d="M919 4753 c-19 -21 -64 -74 -99 -118 -69 -86 -391 -455 -473 -543
-27 -29 -47 -56 -44 -59 6 -5 38 26 127 123 50 55 65 73 164 192 38 46 87 102
108 124 34 35 203 242 246 300 22 30 7 20 -29 -19z"/>
<path d="M1010 4780 c-8 -5 -12 -12 -9 -15 4 -3 12 1 19 10 14 17 11 19 -10 5z"/>
<path d="M4366 4743 c-6 -14 -5 -15 5 -6 7 7 10 15 7 18 -3 3 -9 -2 -12 -12z"/>
<path d="M4890 4715 c-20 -24 -6 -28 15 -5 10 11 13 20 8 20 -6 0 -16 -7 -23
-15z"/>
<path d="M4320 4679 c0 -5 5 -7 10 -4 6 3 10 8 10 11 0 2 -4 4 -10 4 -5 0 -10
-5 -10 -11z"/>
<path d="M4825 4650 c-10 -11 -14 -20 -8 -20 5 0 18 9 28 20 10 11 14 20 8 20
-5 0 -18 -9 -28 -20z"/>
<path d="M2145 4639 c-4 -6 -5 -12 -2 -15 2 -3 7 2 10 11 7 17 1 20 -8 4z"/>
<path d="M5245 4590 c-3 -5 -1 -10 4 -10 6 0 11 5 11 10 0 6 -2 10 -4 10 -3 0
-8 -4 -11 -10z"/>
<path d="M8710 4588 c0 -8 18 -36 40 -61 22 -25 40 -50 40 -55 0 -5 7 -12 15
-16 13 -5 14 -2 4 15 -6 11 -17 28 -24 37 -8 9 -28 34 -45 56 -16 21 -30 32
-30 24z"/>
<path d="M1057 4583 c-4 -3 -7 -11 -7 -17 0 -6 5 -5 12 2 6 6 9 14 7 17 -3 3
-9 2 -12 -2z"/>
<path d="M4760 4580 c0 -5 5 -10 10 -10 6 0 10 5 10 10 0 6 -4 10 -10 10 -5 0
-10 -4 -10 -10z"/>
<path d="M2106 4561 c-4 -7 -5 -15 -2 -18 9 -9 19 4 14 18 -4 11 -6 11 -12 0z"/>
<path d="M4737 4563 c-4 -3 -7 -11 -7 -17 0 -6 5 -5 12 2 6 6 9 14 7 17 -3 3
-9 2 -12 -2z"/>
<path d="M820 4550 c0 -5 5 -10 10 -10 6 0 10 5 10 10 0 6 -4 10 -10 10 -5 0
-10 -4 -10 -10z"/>
<path d="M5182 4538 c-7 -7 -12 -16 -12 -21 0 -5 7 -1 16 8 9 9 14 18 12 20
-2 3 -10 -1 -16 -7z"/>
<path d="M2091 4514 c0 -11 3 -14 6 -6 3 7 2 16 -1 19 -3 4 -6 -2 -5 -13z"/>
<path d="M4699 4513 c-13 -16 -12 -17 4 -4 16 13 21 21 13 21 -2 0 -10 -8 -17
-17z"/>
<path d="M3455 4500 c-3 -5 -2 -10 4 -10 5 0 13 5 16 10 3 6 2 10 -4 10 -5 0
-13 -4 -16 -10z"/>
<path d="M2085 4480 c-3 -5 -2 -10 4 -10 5 0 13 5 16 10 3 6 2 10 -4 10 -5 0
-13 -4 -16 -10z"/>
<path d="M4655 4479 c-11 -16 -1 -19 13 -3 7 8 8 14 3 14 -5 0 -13 -5 -16 -11z"/>
<path d="M736 4454 c-5 -14 -4 -15 9 -4 17 14 19 20 6 20 -5 0 -12 -7 -15 -16z"/>
<path d="M1565 4450 c-3 -5 -1 -10 4 -10 6 0 11 5 11 10 0 6 -2 10 -4 10 -3 0
-8 -4 -11 -10z"/>
<path d="M3280 4390 c-120 -136 -123 -140 -100 -140 6 0 10 7 10 16 0 9 5 12
12 8 7 -5 8 -3 4 5 -5 8 0 14 13 18 12 3 21 9 21 13 0 8 26 40 71 87 17 18 29
37 27 43 -2 6 -28 -16 -58 -50z"/>
<path d="M1540 4415 c-11 -13 -10 -14 4 -9 9 3 16 10 16 15 0 13 -6 11 -20 -6z"/>
<path d="M666 4378 c-18 -25 -20 -38 -7 -38 5 0 11 9 14 20 3 11 13 20 22 20
9 0 13 5 10 10 -10 16 -23 12 -39 -12z"/>
<path d="M1490 4355 c-19 -19 -31 -35 -27 -35 9 0 35 25 56 53 22 28 7 19 -29
-18z"/>
<path d="M1695 4360 c-3 -5 -1 -10 4 -10 6 0 11 5 11 10 0 6 -2 10 -4 10 -3 0
-8 -4 -11 -10z"/>
<path d="M880 4309 c0 -5 5 -7 10 -4 6 3 10 8 10 11 0 2 -4 4 -10 4 -5 0 -10
-5 -10 -11z"/>
<path d="M1657 4303 c-4 -3 -7 -11 -7 -17 0 -6 5 -5 12 2 6 6 9 14 7 17 -3 3
-9 2 -12 -2z"/>
<path d="M737 4273 c-4 -3 -7 -13 -7 -22 1 -13 3 -13 11 2 11 19 8 33 -4 20z"/>
<path d="M845 4270 c-3 -5 -1 -10 4 -10 6 0 11 5 11 10 0 6 -2 10 -4 10 -3 0
-8 -4 -11 -10z"/>
<path d="M1415 4270 c-3 -5 -1 -10 4 -10 6 0 11 5 11 10 0 6 -2 10 -4 10 -3 0
-8 -4 -11 -10z"/>
<path d="M1615 4250 c-3 -5 -1 -10 4 -10 6 0 11 5 11 10 0 6 -2 10 -4 10 -3 0
-8 -4 -11 -10z"/>
<path d="M3455 4250 c-3 -5 -1 -10 4 -10 6 0 11 5 11 10 0 6 -2 10 -4 10 -3 0
-8 -4 -11 -10z"/>
<path d="M3153 4243 c-7 -3 -13 -14 -13 -26 0 -18 1 -19 13 -5 6 9 19 18 26
20 13 4 13 5 0 10 -7 3 -20 3 -26 1z"/>
<path d="M3420 4210 c-6 -12 -9 -24 -7 -27 3 -2 11 5 17 17 6 12 9 24 7 27 -3
2 -11 -5 -17 -17z"/>
<path d="M1815 4190 c-3 -5 -1 -10 4 -10 6 0 11 5 11 10 0 6 -2 10 -4 10 -3 0
-8 -4 -11 -10z"/>
<path d="M3685 4190 c-3 -5 -1 -10 4 -10 6 0 11 5 11 10 0 6 -2 10 -4 10 -3 0
-8 -4 -11 -10z"/>
<path d="M1725 4180 c-3 -5 -1 -10 4 -10 6 0 11 5 11 10 0 6 -2 10 -4 10 -3 0
-8 -4 -11 -10z"/>
<path d="M5255 4180 c-3 -5 -2 -10 4 -10 5 0 13 5 16 10 3 6 2 10 -4 10 -5 0
-13 -4 -16 -10z"/>
<path d="M641 4144 c0 -11 3 -14 6 -6 3 7 2 16 -1 19 -3 4 -6 -2 -5 -13z"/>
<path d="M975 4150 c-3 -5 -1 -10 4 -10 6 0 11 5 11 10 0 6 -2 10 -4 10 -3 0
-8 -4 -11 -10z"/>
<path d="M3650 4144 c0 -8 5 -12 10 -9 6 4 8 11 5 16 -9 14 -15 11 -15 -7z"/>
<path d="M5205 4110 c4 -6 11 -8 16 -5 14 9 11 15 -7 15 -8 0 -12 -5 -9 -10z"/>
<path d="M3615 4090 c-3 -5 -1 -10 4 -10 6 0 11 5 11 10 0 6 -2 10 -4 10 -3 0
-8 -4 -11 -10z"/>
<path d="M5185 4090 c3 -5 1 -10 -4 -10 -6 0 -11 -5 -11 -11 0 -8 5 -8 15 1
17 14 20 30 4 30 -5 0 -7 -4 -4 -10z"/>
<path d="M586 4081 c-16 -25 -25 -61 -16 -61 6 0 13 13 16 29 4 17 14 32 23
34 14 4 14 5 -1 6 -9 0 -19 -3 -22 -8z"/>
<path d="M1727 4073 c-4 -3 -7 -11 -7 -17 0 -6 5 -5 12 2 6 6 9 14 7 17 -3 3
-9 2 -12 -2z"/>
<path d="M2097 4039 c-4 -16 -3 -18 9 -8 16 13 19 29 5 29 -5 0 -11 -9 -14
-21z"/>
<path d="M1700 4024 c0 -8 5 -12 10 -9 6 3 10 10 10 16 0 5 -4 9 -10 9 -5 0
-10 -7 -10 -16z"/>
<path d="M3420 4020 c-8 -5 -12 -12 -9 -15 4 -3 12 1 19 10 14 17 11 19 -10 5z"/>
<path d="M480 4006 c0 -9 -7 -16 -16 -16 -8 0 -12 -4 -9 -10 9 -15 19 -12 32
10 8 12 9 21 3 25 -6 3 -10 -1 -10 -9z"/>
<path d="M530 3980 c0 -11 2 -20 4 -20 2 0 6 9 9 20 3 11 1 20 -4 20 -5 0 -9
-9 -9 -20z"/>
<path d="M3370 3989 c0 -5 5 -7 10 -4 6 3 10 8 10 11 0 2 -4 4 -10 4 -5 0 -10
-5 -10 -11z"/>
<path d="M3735 3970 c-3 -5 -1 -10 4 -10 6 0 11 5 11 10 0 6 -2 10 -4 10 -3 0
-8 -4 -11 -10z"/>
<path d="M5135 3969 c-4 -6 -5 -13 -2 -16 7 -7 27 6 27 18 0 12 -17 12 -25 -2z"/>
<path d="M2053 3963 c-7 -2 -13 -10 -13 -16 0 -6 -6 -18 -14 -26 -19 -22 -30
-61 -17 -61 6 0 11 7 11 15 0 9 7 18 15 21 9 4 14 11 13 18 -1 6 3 21 10 34 7
12 11 22 10 21 -2 0 -9 -3 -15 -6z"/>
<path d="M3700 3950 c0 -5 5 -10 11 -10 5 0 7 5 4 10 -3 6 -8 10 -11 10 -2 0
-4 -4 -4 -10z"/>
<path d="M2871 3934 c0 -11 3 -14 6 -6 3 7 2 16 -1 19 -3 4 -6 -2 -5 -13z"/>
<path d="M435 3930 c-3 -5 -1 -10 4 -10 6 0 11 5 11 10 0 6 -2 10 -4 10 -3 0
-8 -4 -11 -10z"/>
<path d="M382 3909 c-7 -10 -12 -27 -11 -36 0 -14 2 -15 6 -3 3 8 12 22 20 32
8 9 10 18 6 21 -5 3 -14 -3 -21 -14z"/>
<path d="M641 3914 c0 -11 3 -14 6 -6 3 7 2 16 -1 19 -3 4 -6 -2 -5 -13z"/>
<path d="M975 3920 c-3 -5 -2 -10 4 -10 5 0 13 5 16 10 3 6 2 10 -4 10 -5 0
-13 -4 -16 -10z"/>
<path d="M496 3904 c-10 -25 1 -29 14 -5 6 12 7 21 1 21 -5 0 -12 -7 -15 -16z"/>
<path d="M2806 3911 c-4 -5 3 -7 14 -4 23 6 26 13 6 13 -8 0 -17 -4 -20 -9z"/>
<path d="M3020 3905 c-7 -9 -11 -17 -8 -20 2 -2 12 4 21 15 9 11 13 20 8 20
-5 0 -14 -7 -21 -15z"/>
<path d="M2770 3903 c0 -5 5 -15 10 -23 8 -12 10 -11 10 8 0 12 -4 22 -10 22
-5 0 -10 -3 -10 -7z"/>
<path d="M927 3866 c-15 -15 -26 -31 -23 -33 3 -3 12 2 20 10 9 8 21 17 27 19
6 2 10 10 8 18 -3 11 -11 8 -32 -14z"/>
<path d="M5020 3889 c0 -5 5 -7 10 -4 6 3 10 8 10 11 0 2 -4 4 -10 4 -5 0 -10
-5 -10 -11z"/>
<path d="M432 3858 c-20 -20 -14 -29 16 -22 35 9 39 13 22 24 -20 13 -24 12
-38 -2z"/>
<path d="M4979 3853 c-13 -16 -12 -17 4 -4 9 7 17 15 17 17 0 8 -8 3 -21 -13z"/>
<path d="M505 3849 c-9 -14 -2 -20 14 -10 8 6 9 11 3 15 -6 3 -14 1 -17 -5z"/>
<path d="M2935 3850 c-3 -5 -2 -10 4 -10 5 0 13 5 16 10 3 6 2 10 -4 10 -5 0
-13 -4 -16 -10z"/>
<path d="M340 3828 c0 -41 11 -66 31 -71 21 -6 36 9 17 16 -9 3 -7 10 7 26 16
19 17 24 5 31 -11 7 -18 3 -27 -18 l-12 -27 -1 27 c0 15 -4 30 -10 33 -6 3
-10 -4 -10 -17z"/>
<path d="M1962 3811 c-31 -42 -39 -61 -26 -61 11 0 34 29 34 44 0 8 7 19 16
24 9 5 15 15 12 23 -3 9 -16 -2 -36 -30z"/>
<path d="M1410 3830 c0 -5 5 -10 11 -10 5 0 7 5 4 10 -3 6 -8 10 -11 10 -2 0
-4 -4 -4 -10z"/>
<path d="M1860 3825 c0 -8 2 -15 4 -15 2 0 6 7 10 15 3 8 1 15 -4 15 -6 0 -10
-7 -10 -15z"/>
<path d="M3210 3825 c-7 -9 -11 -18 -8 -20 3 -3 11 1 18 10 7 9 11 18 8 20 -3
3 -11 -1 -18 -10z"/>
<path d="M2740 3809 c0 -5 5 -7 10 -4 6 3 10 8 10 11 0 2 -4 4 -10 4 -5 0 -10
-5 -10 -11z"/>
<path d="M450 3806 c0 -2 7 -7 16 -10 8 -3 12 -2 9 4 -6 10 -25 14 -25 6z"/>
<path d="M565 3800 c-3 -5 1 -10 9 -10 9 0 16 5 16 10 0 6 -4 10 -9 10 -6 0
-13 -4 -16 -10z"/>
<path d="M4920 3781 c-12 -18 -16 -29 -8 -26 16 6 42 45 35 52 -3 2 -15 -10
-27 -26z"/>
<path d="M520 3775 c0 -9 -9 -15 -22 -15 -16 0 -19 -3 -11 -11 8 -8 17 -7 32
3 22 13 29 38 11 38 -5 0 -10 -7 -10 -15z"/>
<path d="M444 3745 c-17 -13 -17 -14 -2 -15 9 0 20 5 23 11 11 17 0 20 -21 4z"/>
<path d="M406 3722 c-3 -6 -15 -8 -26 -5 -16 4 -19 2 -14 -11 3 -9 10 -16 16
-16 5 0 7 -4 4 -8 -2 -4 4 -9 15 -9 21 -2 26 13 7 20 -10 4 -9 8 2 16 8 5 12
13 8 16 -3 4 -9 2 -12 -3z"/>
<path d="M1796 3721 c-4 -7 -5 -15 -2 -18 9 -9 19 4 14 18 -4 11 -6 11 -12 0z"/>
<path d="M540 3710 c0 -5 5 -10 10 -10 6 0 10 5 10 10 0 6 -4 10 -10 10 -5 0
-10 -4 -10 -10z"/>
<path d="M4851 3703 c-1 -7 -7 -13 -15 -13 -8 0 -18 -5 -22 -11 -4 -8 1 -9 17
-4 31 10 32 11 26 27 -4 10 -6 10 -6 1z"/>
<path d="M621 3665 c-13 -20 -20 -39 -16 -43 4 -4 10 -1 12 6 3 7 11 19 20 27
8 8 13 22 11 30 -2 10 -11 3 -27 -20z"/>
<path d="M459 3663 c-12 -15 -12 -16 4 -10 10 4 27 7 38 7 10 0 19 5 19 10 0
16 -47 11 -61 -7z"/>
<path d="M1095 3660 c-4 -12 -5 -24 -2 -27 3 -2 8 5 12 17 4 12 5 24 2 27 -3
2 -8 -5 -12 -17z"/>
<path d="M1865 3670 c-3 -5 -2 -10 4 -10 5 0 13 5 16 10 3 6 2 10 -4 10 -5 0
-13 -4 -16 -10z"/>
<path d="M4776 3644 c-5 -14 -4 -15 9 -4 17 14 19 20 6 20 -5 0 -12 -7 -15
-16z"/>
<path d="M385 3640 c3 -5 8 -10 11 -10 2 0 4 5 4 10 0 6 -5 10 -11 10 -5 0 -7
-4 -4 -10z"/>
<path d="M1705 3640 c-3 -5 -1 -10 4 -10 6 0 11 5 11 10 0 6 -2 10 -4 10 -3 0
-8 -4 -11 -10z"/>
<path d="M1760 3628 c-6 -13 -15 -32 -22 -43 -37 -60 -64 -101 -69 -105 -14
-11 -40 -72 -36 -83 2 -7 12 5 22 26 11 20 22 37 27 37 4 0 8 7 8 15 0 8 9 25
20 38 27 31 80 137 69 137 -5 0 -14 -10 -19 -22z"/>
<path d="M450 3607 c0 -21 20 -35 41 -30 10 3 19 9 19 13 0 5 -9 6 -20 3 -14
-4 -20 0 -20 11 0 9 -4 16 -10 16 -5 0 -10 -6 -10 -13z"/>
<path d="M1054 3605 c-9 -22 1 -29 15 -11 8 10 9 16 1 21 -5 3 -13 -1 -16 -10z"/>
<path d="M4737 3613 c-12 -12 -7 -22 8 -17 8 4 15 10 15 15 0 11 -14 12 -23 2z"/>
<path d="M574 3595 c-11 -28 1 -34 23 -10 21 24 21 25 2 25 -11 0 -22 -7 -25
-15z"/>
<path d="M4640 3600 c-9 -6 -10 -10 -3 -10 6 0 15 5 18 10 8 12 4 12 -15 0z"/>
<path d="M400 3575 c0 -16 6 -25 15 -25 9 0 15 9 15 25 0 16 -6 25 -15 25 -9
0 -15 -9 -15 -25z"/>
<path d="M2858 3593 c7 -3 16 -2 19 1 4 3 -2 6 -13 5 -11 0 -14 -3 -6 -6z"/>
<path d="M2358 3583 c7 -3 16 -2 19 1 4 3 -2 6 -13 5 -11 0 -14 -3 -6 -6z"/>
<path d="M2685 3580 c-3 -5 -1 -10 4 -10 6 0 11 5 11 10 0 6 -2 10 -4 10 -3 0
-8 -4 -11 -10z"/>
<path d="M1009 3564 c-12 -14 -11 -16 5 -13 11 2 21 10 24 17 5 17 -13 15 -29
-4z"/>
<path d="M2820 3560 c0 -11 2 -20 4 -20 2 0 6 9 9 20 3 11 1 20 -4 20 -5 0 -9
-9 -9 -20z"/>
<path d="M4676 3550 c-16 -17 -25 -30 -20 -30 13 0 54 38 54 50 0 14 -2 13
-34 -20z"/>
<path d="M542 3558 c-6 -6 -12 -18 -12 -24 0 -7 -8 -15 -17 -17 -15 -4 -15 -5
-2 -6 19 -1 53 33 47 49 -2 7 -7 7 -16 -2z"/>
<path d="M2470 3559 c0 -11 44 -19 53 -10 5 5 -5 11 -22 13 -17 3 -31 1 -31
-3z"/>
<path d="M4600 3559 c0 -5 5 -7 10 -4 6 3 10 8 10 11 0 2 -4 4 -10 4 -5 0 -10
-5 -10 -11z"/>
<path d="M1130 3550 c0 -5 5 -10 11 -10 5 0 7 5 4 10 -3 6 -8 10 -11 10 -2 0
-4 -4 -4 -10z"/>
<path d="M2660 3550 c0 -5 5 -10 10 -10 6 0 10 5 10 10 0 6 -4 10 -10 10 -5 0
-10 -4 -10 -10z"/>
<path d="M4574 3545 c-8 -21 -63 -75 -76 -75 -5 0 -8 -4 -8 -10 0 -17 43 10
73 46 16 19 27 39 24 46 -3 9 -7 6 -13 -7z"/>
<path d="M450 3539 c0 -5 5 -7 10 -4 6 3 10 8 10 11 0 2 -4 4 -10 4 -5 0 -10
-5 -10 -11z"/>
<path d="M697 3512 c-11 -12 -14 -26 -9 -42 6 -23 7 -23 12 10 3 21 11 34 19
32 7 -1 10 2 6 8 -8 13 -9 13 -28 -8z"/>
<path d="M1479 3492 c-35 -36 -43 -52 -27 -52 12 0 63 68 56 75 -2 2 -15 -9
-29 -23z"/>
<path d="M1595 3510 c3 -5 8 -10 11 -10 2 0 4 5 4 10 0 6 -5 10 -11 10 -5 0
-7 -4 -4 -10z"/>
<path d="M900 3499 c0 -5 5 -7 10 -4 6 3 10 8 10 11 0 2 -4 4 -10 4 -5 0 -10
-5 -10 -11z"/>
<path d="M4613 3485 c-9 -25 4 -29 17 -6 7 15 7 21 0 21 -6 0 -13 -7 -17 -15z"/>
<path d="M425 3480 c3 -5 8 -10 11 -10 2 0 4 5 4 10 0 6 -5 10 -11 10 -5 0 -7
-4 -4 -10z"/>
<path d="M460 3481 c0 -6 5 -13 10 -16 6 -3 10 1 10 9 0 9 -4 16 -10 16 -5 0
-10 -4 -10 -9z"/>
<path d="M2855 3470 c-3 -5 -1 -10 4 -10 6 0 11 5 11 10 0 6 -2 10 -4 10 -3 0
-8 -4 -11 -10z"/>
<path d="M565 3460 c-3 -5 1 -10 9 -10 9 0 16 5 16 10 0 6 -4 10 -9 10 -6 0
-13 -4 -16 -10z"/>
<path d="M4580 3460 c0 -5 5 -10 10 -10 6 0 10 5 10 10 0 6 -4 10 -10 10 -5 0
-10 -4 -10 -10z"/>
<path d="M4536 3425 c-14 -13 -34 -29 -43 -34 -14 -8 -15 -10 -3 -10 21 0 93
56 82 63 -5 3 -21 -5 -36 -19z"/>
<path d="M446 3425 c4 -8 11 -15 16 -15 6 0 5 6 -2 15 -7 8 -14 15 -16 15 -2
0 -1 -7 2 -15z"/>
<path d="M615 3430 c-3 -5 1 -10 10 -10 9 0 13 5 10 10 -3 6 -8 10 -10 10 -2
0 -7 -4 -10 -10z"/>
<path d="M836 3421 c-10 -11 -16 -28 -13 -38 4 -17 5 -17 6 0 0 11 11 27 24
38 12 10 17 18 11 19 -6 0 -19 -9 -28 -19z"/>
<path d="M2196 3424 c-9 -24 -7 -28 9 -14 17 14 20 30 6 30 -5 0 -12 -7 -15
-16z"/>
<path d="M2815 3430 c3 -5 8 -10 11 -10 2 0 4 5 4 10 0 6 -5 10 -11 10 -5 0
-7 -4 -4 -10z"/>
<path d="M535 3420 c3 -5 8 -10 11 -10 2 0 4 5 4 10 0 6 -5 10 -11 10 -5 0 -7
-4 -4 -10z"/>
<path d="M1285 3420 c3 -5 8 -10 11 -10 2 0 4 5 4 10 0 6 -5 10 -11 10 -5 0
-7 -4 -4 -10z"/>
<path d="M1410 3411 c-7 -15 -7 -21 0 -21 12 0 25 28 17 36 -3 3 -10 -4 -17
-15z"/>
<path d="M3135 3420 c-3 -5 -1 -10 4 -10 6 0 11 5 11 10 0 6 -2 10 -4 10 -3 0
-8 -4 -11 -10z"/>
<path d="M480 3404 c0 -8 5 -12 10 -9 6 3 10 10 10 16 0 5 -4 9 -10 9 -5 0
-10 -7 -10 -16z"/>
<path d="M4805 3400 c-3 -5 -1 -10 4 -10 6 0 11 5 11 10 0 6 -2 10 -4 10 -3 0
-8 -4 -11 -10z"/>
<path d="M981 3384 c0 -11 3 -14 6 -6 3 7 2 16 -1 19 -3 4 -6 -2 -5 -13z"/>
<path d="M1593 3376 c3 -7 0 -19 -6 -26 -9 -10 -9 -12 2 -8 8 2 18 14 22 26 6
17 5 22 -7 22 -10 0 -14 -6 -11 -14z"/>
<path d="M2153 3373 c-11 -10 -18 -24 -15 -32 3 -9 -1 -11 -17 -6 -25 8 -29
-12 -5 -22 17 -6 48 23 39 37 -3 4 4 10 15 13 11 3 20 10 20 16 0 16 -14 13
-37 -6z"/>
<path d="M470 3360 c0 -11 4 -20 9 -20 17 0 19 15 5 28 -12 11 -14 9 -14 -8z"/>
<path d="M1261 3364 c0 -11 3 -14 6 -6 3 7 2 16 -1 19 -3 4 -6 -2 -5 -13z"/>
<path d="M1372 3368 c-16 -16 -15 -28 2 -28 16 0 29 27 17 34 -4 3 -13 0 -19
-6z"/>
<path d="M1538 3363 c7 -3 16 -2 19 1 4 3 -2 6 -13 5 -11 0 -14 -3 -6 -6z"/>
<path d="M4460 3360 c-8 -5 -12 -12 -9 -15 4 -3 12 1 19 10 14 17 11 19 -10 5z"/>
<path d="M800 3350 c0 -5 5 -10 10 -10 6 0 10 5 10 10 0 6 -4 10 -10 10 -5 0
-10 -4 -10 -10z"/>
<path d="M1646 3334 c-14 -16 -23 -30 -21 -33 3 -2 16 8 30 24 15 15 24 29 22
32 -3 2 -17 -8 -31 -23z"/>
<path d="M525 3341 c-3 -5 -1 -12 5 -16 5 -3 10 1 10 9 0 18 -6 21 -15 7z"/>
<path d="M3035 3330 c-10 -11 -13 -20 -7 -20 7 0 12 4 12 8 0 5 10 14 23 20
15 7 17 11 6 11 -9 1 -24 -8 -34 -19z"/>
<path d="M1336 3324 c-8 -20 0 -32 14 -18 5 5 5 15 1 22 -6 11 -10 10 -15 -4z"/>
<path d="M778 3324 c-5 -4 -8 -15 -8 -25 0 -10 -9 -23 -20 -29 -20 -11 -28
-40 -11 -40 13 0 52 70 49 87 -2 8 -6 11 -10 7z"/>
<path d="M1028 3305 c-22 -29 -22 -35 -4 -35 7 0 16 8 20 18 3 9 9 23 12 30
10 21 -10 12 -28 -13z"/>
<path d="M1217 3324 c-4 -4 -7 -17 -7 -28 0 -19 1 -19 17 -3 12 11 14 20 7 27
-6 6 -13 7 -17 4z"/>
<path d="M501 3274 c0 -11 3 -14 6 -6 3 7 2 16 -1 19 -3 4 -6 -2 -5 -13z"/>
<path d="M547 3283 c-4 -3 -7 -11 -7 -17 0 -6 5 -5 12 2 6 6 9 14 7 17 -3 3
-9 2 -12 -2z"/>
<path d="M1603 3280 c-24 -10 -30 -25 -13 -35 6 -3 10 -2 10 4 0 5 9 13 20 16
11 3 20 11 20 16 0 11 -8 11 -37 -1z"/>
<path d="M1292 3268 c-14 -14 -16 -28 -2 -28 5 0 14 9 20 20 12 22 1 27 -18 8z"/>
<path d="M959 3240 c-9 -9 -22 -19 -29 -22 -10 -3 -11 -9 -2 -24 6 -11 12 -13
12 -6 0 15 25 43 37 42 4 -1 9 6 11 14 4 21 -9 19 -29 -4z"/>
<path d="M4290 3250 c0 -5 5 -10 10 -10 6 0 10 5 10 10 0 6 -4 10 -10 10 -5 0
-10 -4 -10 -10z"/>
<path d="M510 3224 c0 -17 22 -14 28 4 2 7 -3 12 -12 12 -9 0 -16 -7 -16 -16z"/>
<path d="M590 3230 c0 -5 5 -10 11 -10 5 0 7 5 4 10 -3 6 -8 10 -11 10 -2 0
-4 -4 -4 -10z"/>
<path d="M630 3230 c0 -5 5 -10 10 -10 6 0 10 5 10 10 0 6 -4 10 -10 10 -5 0
-10 -4 -10 -10z"/>
<path d="M855 3210 c-3 -5 -1 -10 4 -10 6 0 11 5 11 10 0 6 -2 10 -4 10 -3 0
-8 -4 -11 -10z"/>
<path d="M4445 3210 c-3 -5 -1 -10 4 -10 6 0 11 5 11 10 0 6 -2 10 -4 10 -3 0
-8 -4 -11 -10z"/>
<path d="M783 3179 c-18 -5 -35 -14 -39 -20 -4 -7 0 -9 12 -6 11 4 31 9 47 13
15 3 27 10 27 15 0 11 -4 10 -47 -2z"/>
<path d="M2295 3180 c-3 -5 -1 -10 4 -10 6 0 11 5 11 10 0 6 -2 10 -4 10 -3 0
-8 -4 -11 -10z"/>
<path d="M1936 3172 c-3 -6 -1 -14 5 -17 15 -10 25 3 12 16 -7 7 -13 7 -17 1z"/>
<path d="M4210 3170 c0 -5 5 -10 11 -10 5 0 7 5 4 10 -3 6 -8 10 -11 10 -2 0
-4 -4 -4 -10z"/>
<path d="M690 3160 c0 -6 7 -10 15 -10 8 0 15 2 15 4 0 2 -7 6 -15 10 -8 3
-15 1 -15 -4z"/>
<path d="M890 3145 c1 -26 2 -28 11 -12 8 14 8 22 0 30 -8 8 -11 3 -11 -18z"/>
<path d="M1175 3159 c-4 -6 -5 -12 -2 -15 2 -3 7 2 10 11 7 17 1 20 -8 4z"/>
<path d="M1380 3150 c0 -5 5 -10 10 -10 6 0 10 5 10 10 0 6 -4 10 -10 10 -5 0
-10 -4 -10 -10z"/>
<path d="M1528 3146 c-19 -14 -17 -54 4 -67 18 -11 23 -2 8 16 -11 13 -10 18
6 29 10 8 23 12 28 9 5 -3 7 0 4 8 -6 19 -29 21 -50 5z"/>
<path d="M550 3120 c0 -5 5 -10 11 -10 5 0 7 5 4 10 -3 6 -8 10 -11 10 -2 0
-4 -4 -4 -10z"/>
<path d="M1028 3123 c6 -2 18 -2 25 0 6 3 1 5 -13 5 -14 0 -19 -2 -12 -5z"/>
<path d="M1177 3123 c-4 -3 -7 -13 -7 -22 1 -13 3 -13 11 2 11 19 8 33 -4 20z"/>
<path d="M1450 3120 c0 -5 7 -10 16 -10 8 0 12 5 9 10 -3 6 -10 10 -16 10 -5
0 -9 -4 -9 -10z"/>
<path d="M623 3105 c-7 -8 -13 -19 -13 -25 0 -17 20 -11 27 8 4 9 11 20 17 24
7 5 5 8 -4 7 -8 0 -21 -6 -27 -14z"/>
<path d="M1257 3113 c-4 -3 -7 -11 -7 -17 0 -6 5 -5 12 2 6 6 9 14 7 17 -3 3
-9 2 -12 -2z"/>
<path d="M4130 3110 c0 -5 5 -10 11 -10 5 0 7 5 4 10 -3 6 -8 10 -11 10 -2 0
-4 -4 -4 -10z"/>
<path d="M1390 3100 l-25 -8 28 -1 c15 -1 27 4 27 9 0 6 -1 10 -2 9 -2 -1 -14
-5 -28 -9z"/>
<path d="M845 3091 c-6 -11 9 -23 19 -14 9 9 7 23 -3 23 -6 0 -12 -4 -16 -9z"/>
<path d="M975 3081 c-3 -5 -1 -12 5 -16 5 -3 10 1 10 9 0 18 -6 21 -15 7z"/>
<path d="M1140 3062 c-8 -10 -16 -25 -18 -32 -2 -8 -16 -30 -31 -49 -15 -20
-34 -51 -42 -68 -8 -18 -17 -33 -21 -33 -5 0 -8 -5 -8 -12 0 -6 -7 -19 -15
-28 -14 -15 -14 -18 0 -30 13 -11 16 -8 21 18 3 17 12 33 19 36 7 2 16 18 20
34 3 17 13 33 21 36 8 3 14 13 14 23 0 10 9 24 20 31 11 7 20 21 20 31 0 10 7
24 15 31 16 13 20 30 7 30 -4 0 -14 -8 -22 -18z"/>
<path d="M1482 3068 c-7 -7 -12 -22 -12 -35 0 -13 -4 -23 -9 -23 -6 0 -16 -11
-23 -24 -54 -99 -85 -146 -95 -146 -7 0 -13 -7 -13 -15 0 -8 3 -15 8 -15 10 1
58 52 64 69 3 11 7 10 21 -3 15 -15 17 -15 17 -2 0 9 -4 16 -10 16 -16 0 -11
19 10 37 11 10 20 27 20 39 0 13 8 24 19 27 15 3 18 11 14 27 -4 15 0 26 11
32 9 5 14 13 11 19 -8 12 -19 11 -33 -3z"/>
<path d="M580 3058 c0 -9 5 -20 10 -23 13 -8 13 5 0 25 -8 13 -10 13 -10 -2z"/>
<path d="M615 3040 c3 -5 8 -10 11 -10 2 0 4 5 4 10 0 6 -5 10 -11 10 -5 0 -7
-4 -4 -10z"/>
<path d="M828 3042 c-17 -3 -26 -42 -10 -42 8 0 36 40 30 44 -2 1 -11 1 -20
-2z"/>
<path d="M1210 3031 c-20 -39 -4 -43 23 -6 15 21 16 25 3 25 -8 0 -20 -9 -26
-19z"/>
<path d="M4071 3034 c0 -11 3 -14 6 -6 3 7 2 16 -1 19 -3 4 -6 -2 -5 -13z"/>
<path d="M735 3030 c-3 -5 -1 -10 4 -10 6 0 11 5 11 10 0 6 -2 10 -4 10 -3 0
-8 -4 -11 -10z"/>
<path d="M1278 3033 c6 -2 18 -2 25 0 6 3 1 5 -13 5 -14 0 -19 -2 -12 -5z"/>
<path d="M1900 3029 c0 -5 5 -7 10 -4 6 3 10 8 10 11 0 2 -4 4 -10 4 -5 0 -10
-5 -10 -11z"/>
<path d="M655 3020 c-3 -5 -1 -10 4 -10 6 0 11 5 11 10 0 6 -2 10 -4 10 -3 0
-8 -4 -11 -10z"/>
<path d="M1335 3020 c-3 -5 1 -10 9 -10 9 0 16 5 16 10 0 6 -4 10 -9 10 -6 0
-13 -4 -16 -10z"/>
<path d="M773 2950 c-3 -11 -9 -20 -14 -20 -10 0 -32 -50 -25 -57 2 -2 15 -1
28 2 19 5 24 12 21 29 -3 13 2 28 11 35 20 17 20 31 0 31 -9 0 -18 -9 -21 -20z"/>
<path d="M1353 2963 c-15 -5 -17 -23 -4 -23 5 0 11 7 15 15 3 8 4 15 3 14 -1
0 -8 -3 -14 -6z"/>
<path d="M695 2950 c-3 -5 -1 -10 4 -10 6 0 11 5 11 10 0 6 -2 10 -4 10 -3 0
-8 -4 -11 -10z"/>
<path d="M1178 2953 c-20 -5 -20 -8 -9 -37 7 -18 9 -16 19 12 6 18 10 31 9 31
-1 -1 -10 -3 -19 -6z"/>
<path d="M1635 2949 c-10 -15 3 -25 16 -12 7 7 7 13 1 17 -6 3 -14 1 -17 -5z"/>
<path d="M1690 2950 c-13 -9 -13 -10 0 -9 8 0 24 4 35 9 l20 9 -20 0 c-11 0
-27 -4 -35 -9z"/>
<path d="M1300 2940 c0 -6 -10 -15 -22 -20 -23 -9 -23 -9 -2 -9 25 -1 51 24
34 34 -5 3 -10 1 -10 -5z"/>
<path d="M2340 2930 c0 -11 2 -20 4 -20 2 0 6 9 9 20 3 11 1 20 -4 20 -5 0 -9
-9 -9 -20z"/>
<path d="M1141 2924 c0 -11 3 -14 6 -6 3 7 2 16 -1 19 -3 4 -6 -2 -5 -13z"/>
<path d="M656 2921 c-4 -7 -5 -15 -2 -18 9 -9 19 4 14 18 -4 11 -6 11 -12 0z"/>
<path d="M878 2914 c-4 -3 2 -14 13 -25 20 -20 34 -26 24 -9 -3 6 1 13 9 16 9
3 13 10 10 15 -6 10 -47 12 -56 3z"/>
<path d="M1310 2899 c0 -5 5 -7 10 -4 6 3 10 8 10 11 0 2 -4 4 -10 4 -5 0 -10
-5 -10 -11z"/>
<path d="M693 2873 c1 -18 -3 -27 -10 -25 -16 3 -17 -14 -2 -24 15 -9 26 5 34
44 5 25 3 32 -9 32 -10 0 -14 -9 -13 -27z"/>
<path d="M858 2843 c7 -3 16 -2 19 1 4 3 -2 6 -13 5 -11 0 -14 -3 -6 -6z"/>
<path d="M1210 2840 c0 -5 12 -10 28 -10 21 0 24 2 12 10 -20 13 -40 13 -40 0z"/>
<path d="M780 2830 c-25 -6 -25 -6 5 -12 17 -4 34 -3 38 1 12 12 -14 19 -43
11z"/>
<path d="M3121 2804 c0 -11 3 -14 6 -6 3 7 2 16 -1 19 -3 4 -6 -2 -5 -13z"/>
<path d="M1293 2803 c-28 -11 -11 -23 30 -22 23 1 32 4 20 6 -13 2 -23 9 -23
14 0 10 -8 10 -27 2z"/>
<path d="M1375 2790 c-3 -5 -1 -10 4 -10 6 0 11 5 11 10 0 6 -2 10 -4 10 -3 0
-8 -4 -11 -10z"/>
<path d="M1456 2792 c-2 -4 -1 -13 3 -20 4 -8 11 -5 19 8 10 16 10 20 -2 20
-8 0 -17 -4 -20 -8z"/>
<path d="M721 2783 c0 -6 -4 -20 -7 -30 -5 -14 -4 -15 5 -7 7 7 11 20 8 30 -3
11 -5 14 -6 7z"/>
<path d="M1235 2780 c-8 -13 5 -13 25 0 13 8 13 10 -2 10 -9 0 -20 -4 -23 -10z"/>
<path d="M766 2765 c-3 -8 -1 -15 4 -15 6 0 10 7 10 15 0 8 -2 15 -4 15 -2 0
-6 -7 -10 -15z"/>
<path d="M1070 2760 c-25 -5 -31 -9 -19 -14 15 -7 69 8 69 19 0 3 -3 4 -7 4
-5 -1 -24 -5 -43 -9z"/>
<path d="M1415 2760 c-3 -5 -1 -10 4 -10 6 0 11 5 11 10 0 6 -2 10 -4 10 -3 0
-8 -4 -11 -10z"/>
<path d="M1736 2761 c-4 -7 -5 -15 -2 -18 9 -9 19 4 14 18 -4 11 -6 11 -12 0z"/>
<path d="M785 2702 c-8 -34 2 -40 21 -13 9 12 22 20 30 17 7 -3 16 -1 19 3 2
5 -11 11 -30 13 -29 3 -35 0 -40 -20z"/>
<path d="M1095 2719 c-11 -17 1 -21 15 -4 8 9 8 15 2 15 -6 0 -14 -5 -17 -11z"/>
<path d="M740 2710 c0 -5 5 -10 10 -10 6 0 10 5 10 10 0 6 -4 10 -10 10 -5 0
-10 -4 -10 -10z"/>
<path d="M930 2710 c0 -5 -9 -10 -20 -10 -11 0 -20 -4 -20 -8 0 -18 13 -20 36
-5 25 16 32 33 14 33 -5 0 -10 -4 -10 -10z"/>
<path d="M3696 2705 c-3 -8 -1 -15 4 -15 6 0 10 7 10 15 0 8 -2 15 -4 15 -2 0
-6 -7 -10 -15z"/>
<path d="M4085 2710 c3 -5 8 -10 11 -10 2 0 4 5 4 10 0 6 -5 10 -11 10 -5 0
-7 -4 -4 -10z"/>
<path d="M1290 2700 c-13 -8 -13 -10 2 -10 9 0 20 5 23 10 8 13 -5 13 -25 0z"/>
<path d="M1177 2694 c-4 -4 -7 -14 -7 -23 0 -11 3 -12 11 -4 6 6 10 16 7 23
-2 6 -7 8 -11 4z"/>
<path d="M1650 2690 c0 -5 5 -10 11 -10 5 0 7 5 4 10 -3 6 -8 10 -11 10 -2 0
-4 -4 -4 -10z"/>
<path d="M4055 2690 c-3 -5 -1 -10 4 -10 6 0 11 5 11 10 0 6 -2 10 -4 10 -3 0
-8 -4 -11 -10z"/>
<path d="M740 2683 c0 -7 5 -13 10 -13 6 0 10 -6 10 -14 0 -8 5 -18 10 -21 17
-10 11 11 -10 36 -10 13 -19 18 -20 12z"/>
<path d="M1065 2680 c-16 -7 -17 -9 -3 -9 9 -1 20 4 23 9 7 11 7 11 -20 0z"/>
<path d="M3810 2669 c0 -5 5 -7 10 -4 6 3 10 8 10 11 0 2 -4 4 -10 4 -5 0 -10
-5 -10 -11z"/>
<path d="M4005 2643 l-18 -28 27 24 c28 26 31 31 17 31 -5 0 -17 -12 -26 -27z"/>
<path d="M930 2650 c0 -5 -7 -10 -17 -10 -9 0 -14 -3 -10 -6 8 -8 47 5 47 17
0 5 -4 9 -10 9 -5 0 -10 -4 -10 -10z"/>
<path d="M980 2635 c0 -12 7 -14 26 -9 20 5 25 3 22 -7 -3 -8 -11 -13 -18 -11
-14 3 -40 -16 -40 -29 0 -5 6 -9 13 -9 18 1 57 36 57 53 0 8 -10 17 -22 21
-34 9 -38 8 -38 -9z"/>
<path d="M3636 2637 c-10 -8 -17 -19 -15 -25 5 -14 42 13 37 28 -2 7 -9 6 -22
-3z"/>
<path d="M1109 2629 c-7 -4 -10 -12 -5 -16 5 -4 11 -2 13 5 7 17 23 15 23 -4
0 -19 24 -13 28 7 3 16 -37 22 -59 8z"/>
<path d="M837 2610 c-7 -27 13 -37 30 -15 18 26 16 35 -6 35 -10 0 -21 -9 -24
-20z"/>
<path d="M880 2600 c0 -5 5 -10 10 -10 6 0 10 5 10 10 0 6 -4 10 -10 10 -5 0
-10 -4 -10 -10z"/>
<path d="M1090 2579 c0 -14 -5 -19 -14 -16 -7 3 -21 -4 -31 -15 -14 -17 -15
-22 -4 -29 9 -6 19 -3 27 9 7 9 20 16 28 14 10 -2 14 3 12 15 -1 10 1 24 5 31
5 8 3 12 -7 12 -10 0 -16 -9 -16 -21z"/>
<path d="M2050 2589 c0 -5 5 -7 10 -4 6 3 10 8 10 11 0 2 -4 4 -10 4 -5 0 -10
-5 -10 -11z"/>
<path d="M1210 2580 c-13 -8 -13 -10 2 -10 9 0 20 5 23 10 8 13 -5 13 -25 0z"/>
<path d="M3930 2580 c-8 -5 -11 -12 -7 -16 4 -4 15 0 24 9 18 18 8 23 -17 7z"/>
<path d="M892 2558 c-5 -7 -12 -23 -16 -34 -5 -17 -2 -23 16 -28 32 -8 38 -8
38 4 0 6 -9 10 -20 10 -18 0 -19 2 -8 20 8 13 24 20 43 20 23 0 27 3 15 10
-21 14 -56 12 -68 -2z"/>
<path d="M833 2549 c14 -8 15 -14 7 -24 -7 -8 -7 -16 -2 -19 11 -6 24 33 16
46 -3 4 -13 8 -22 8 -15 -1 -15 -2 1 -11z"/>
<path d="M3575 2550 c3 -5 8 -10 11 -10 2 0 4 5 4 10 0 6 -5 10 -11 10 -5 0
-7 -4 -4 -10z"/>
<path d="M1245 2540 c-3 -5 -1 -10 4 -10 6 0 11 5 11 10 0 6 -2 10 -4 10 -3 0
-8 -4 -11 -10z"/>
<path d="M3880 2530 c0 -5 5 -10 10 -10 6 0 10 5 10 10 0 6 -4 10 -10 10 -5 0
-10 -4 -10 -10z"/>
<path d="M1213 2506 c3 -8 1 -17 -6 -20 -9 -3 -9 -5 0 -5 7 -1 10 -11 7 -28
-5 -26 -4 -26 14 -10 10 9 27 17 37 17 10 0 15 3 11 7 -4 4 -17 8 -29 8 -17 0
-21 5 -19 23 2 12 -2 22 -8 22 -7 0 -10 -6 -7 -14z"/>
<path d="M1085 2490 c-3 -5 -1 -10 4 -10 6 0 11 5 11 10 0 6 -2 10 -4 10 -3 0
-8 -4 -11 -10z"/>
<path d="M900 2465 c0 -8 5 -15 10 -15 6 0 10 7 10 15 0 8 -4 15 -10 15 -5 0
-10 -7 -10 -15z"/>
<path d="M957 2466 c-3 -8 1 -20 10 -27 8 -8 19 -22 23 -34 l9 -20 0 21 c1 22
-20 74 -30 74 -4 0 -9 -6 -12 -14z"/>
<path d="M1572 2460 c0 -14 2 -19 5 -12 2 6 2 18 0 25 -3 6 -5 1 -5 -13z"/>
<path d="M2500 2469 c0 -5 5 -7 10 -4 6 3 10 8 10 11 0 2 -4 4 -10 4 -5 0 -10
-5 -10 -11z"/>
<path d="M1134 2454 c3 -9 6 -20 6 -25 0 -6 4 -8 9 -5 12 8 2 46 -11 46 -6 0
-7 -7 -4 -16z"/>
<path d="M1326 2436 c3 -9 11 -16 16 -16 13 0 5 23 -10 28 -7 2 -10 -2 -6 -12z"/>
<path d="M1780 2439 c0 -5 5 -7 10 -4 6 3 10 8 10 11 0 2 -4 4 -10 4 -5 0 -10
-5 -10 -11z"/>
<path d="M1295 2430 c-3 -5 -1 -10 4 -10 6 0 11 5 11 10 0 6 -2 10 -4 10 -3 0
-8 -4 -11 -10z"/>
<path d="M930 2390 c0 -5 5 -10 10 -10 6 0 10 5 10 10 0 6 -4 10 -10 10 -5 0
-10 -4 -10 -10z"/>
<path d="M1205 2390 c-3 -5 3 -10 14 -10 12 0 21 5 21 10 0 6 -6 10 -14 10 -8
0 -18 -4 -21 -10z"/>
<path d="M960 2350 c0 -5 5 -10 11 -10 5 0 7 5 4 10 -3 6 -8 10 -11 10 -2 0
-4 -4 -4 -10z"/>
<path d="M1012 2348 c-18 -18 -14 -30 7 -19 10 6 22 7 26 3 4 -4 6 -1 3 7 -6
20 -21 24 -36 9z"/>
<path d="M3450 2349 c0 -5 5 -7 10 -4 6 3 10 8 10 11 0 2 -4 4 -10 4 -5 0 -10
-5 -10 -11z"/>
<path d="M3408 2332 c-39 -23 -45 -44 -7 -25 28 14 45 31 37 38 -2 2 -15 -4
-30 -13z"/>
<path d="M1150 2310 c0 -5 9 -10 20 -10 11 0 20 5 20 10 0 6 -9 10 -20 10 -11
0 -20 -4 -20 -10z"/>
<path d="M1020 2286 c0 -17 30 -30 42 -18 5 5 -3 14 -17 20 -20 9 -25 9 -25
-2z"/>
<path d="M1815 2290 c-3 -5 -1 -10 4 -10 6 0 11 5 11 10 0 6 -2 10 -4 10 -3 0
-8 -4 -11 -10z"/>
<path d="M980 2280 c0 -5 5 -10 11 -10 5 0 7 5 4 10 -3 6 -8 10 -11 10 -2 0
-4 -4 -4 -10z"/>
<path d="M1085 2270 c-3 -5 -1 -10 4 -10 6 0 11 5 11 10 0 6 -2 10 -4 10 -3 0
-8 -4 -11 -10z"/>
<path d="M3335 2270 c-3 -5 -1 -10 4 -10 6 0 11 5 11 10 0 6 -2 10 -4 10 -3 0
-8 -4 -11 -10z"/>
<path d="M1005 2249 c-10 -15 3 -25 16 -12 7 7 7 13 1 17 -6 3 -14 1 -17 -5z"/>
<path d="M1150 2240 c-11 -8 -7 -9 15 -4 37 8 45 14 19 14 -10 0 -26 -5 -34
-10z"/>
<path d="M3300 2240 c0 -5 5 -10 10 -10 6 0 10 5 10 10 0 6 -4 10 -10 10 -5 0
-10 -4 -10 -10z"/>
<path d="M1085 2230 c-3 -5 3 -10 15 -10 12 0 18 5 15 10 -3 6 -10 10 -15 10
-5 0 -12 -4 -15 -10z"/>
<path d="M1255 2229 c-11 -17 1 -21 15 -4 8 9 8 15 2 15 -6 0 -14 -5 -17 -11z"/>
<path d="M1570 2209 c0 -5 5 -7 10 -4 6 3 10 8 10 11 0 2 -4 4 -10 4 -5 0 -10
-5 -10 -11z"/>
<path d="M1030 2200 c0 -6 7 -13 15 -16 8 -4 15 -14 15 -24 0 -12 8 -17 30
-18 30 -1 31 1 30 46 0 4 -14 7 -30 8 -16 0 -33 3 -36 7 -11 10 -24 8 -24 -3z
m75 -30 c-3 -5 -10 -10 -16 -10 -5 0 -9 5 -9 10 0 6 7 10 16 10 8 0 12 -4 9
-10z"/>
<path d="M1216 2195 c-3 -8 -1 -15 3 -15 5 0 11 7 15 15 3 8 1 15 -3 15 -5 0
-11 -7 -15 -15z"/>
<path d="M1140 2190 c0 -5 5 -10 10 -10 6 0 10 5 10 10 0 6 -4 10 -10 10 -5 0
-10 -4 -10 -10z"/>
<path d="M1177 2149 c-9 -6 -17 -18 -17 -27 0 -14 4 -13 22 6 24 24 22 36 -5
21z"/>
<path d="M2341 2144 c0 -11 3 -14 6 -6 3 7 2 16 -1 19 -3 4 -6 -2 -5 -13z"/>
<path d="M2937 2103 c-4 -3 -7 -11 -7 -17 0 -6 5 -5 12 2 6 6 9 14 7 17 -3 3
-9 2 -12 -2z"/>
<path d="M1136 2084 c-4 -9 -2 -12 5 -8 6 4 15 1 19 -6 4 -7 10 -8 13 -3 3 5
-3 14 -13 21 -14 9 -19 8 -24 -4z"/>
<path d="M1450 2040 c0 -5 5 -10 10 -10 6 0 10 5 10 10 0 6 -4 10 -10 10 -5 0
-10 -4 -10 -10z"/>
<path d="M1140 2035 c0 -9 34 -45 43 -45 10 0 -25 49 -35 50 -5 0 -8 -2 -8 -5z"/>
<path d="M1251 2014 c0 -11 3 -14 6 -6 3 7 2 16 -1 19 -3 4 -6 -2 -5 -13z"/>
<path d="M3090 1969 l-35 -31 32 22 c29 19 50 40 41 40 -2 0 -19 -14 -38 -31z"/>
<path d="M1205 1950 c3 -5 8 -10 11 -10 2 0 4 5 4 10 0 6 -5 10 -11 10 -5 0
-7 -4 -4 -10z"/>
<path d="M1250 1950 c0 -5 4 -10 9 -10 6 0 13 5 16 10 3 6 -1 10 -9 10 -9 0
-16 -4 -16 -10z"/>
<path d="M1489 1934 c-7 -8 -21 -13 -31 -11 -11 3 -18 0 -18 -10 0 -8 -4 -12
-9 -8 -5 3 -12 1 -15 -4 -3 -4 -28 -11 -55 -15 -48 -6 -49 -7 -37 -31 13 -30
26 -32 26 -5 0 16 7 20 35 20 23 0 41 7 52 20 10 11 25 20 34 20 9 0 24 9 34
20 10 11 13 20 8 20 -6 0 -16 -7 -24 -16z"/>
<path d="M1767 1926 c-4 -10 -1 -13 9 -9 15 6 19 23 5 23 -5 0 -11 -7 -14 -14z"/>
<path d="M1230 1921 c0 -5 5 -13 10 -16 6 -3 10 -2 10 4 0 5 -4 13 -10 16 -5
3 -10 2 -10 -4z"/>
<path d="M2190 1889 c0 -5 5 -7 10 -4 6 3 10 8 10 11 0 2 -4 4 -10 4 -5 0 -10
-5 -10 -11z"/>
<path d="M1735 1870 c-3 -5 1 -10 9 -10 9 0 16 5 16 10 0 6 -4 10 -9 10 -6 0
-13 -4 -16 -10z"/>
<path d="M1690 1825 c0 -8 5 -15 10 -15 6 0 10 7 10 15 0 8 -4 15 -10 15 -5 0
-10 -7 -10 -15z"/>
<path d="M1415 1790 c-3 -5 -1 -10 4 -10 6 0 11 5 11 10 0 6 -2 10 -4 10 -3 0
-8 -4 -11 -10z"/>
<path d="M1370 1755 c7 -9 15 -13 17 -11 7 7 -7 26 -19 26 -6 0 -6 -6 2 -15z"/>
<path d="M1977 1763 c-10 -9 -9 -23 2 -23 5 0 11 7 15 15 5 15 -5 20 -17 8z"/>
<path d="M1612 1743 c-17 -7 -36 -43 -22 -43 5 0 10 7 10 15 0 8 7 15 15 15 8
0 15 5 15 10 0 6 -1 10 -2 9 -2 0 -9 -3 -16 -6z"/>
<path d="M1910 1730 c-9 -6 -10 -10 -3 -10 6 0 15 5 18 10 8 12 4 12 -15 0z"/>
<path d="M2901 1714 c0 -11 3 -14 6 -6 3 7 2 16 -1 19 -3 4 -6 -2 -5 -13z"/>
<path d="M1466 1672 c-2 -4 6 -7 20 -7 32 2 39 10 9 13 -13 1 -26 -2 -29 -6z"/>
<path d="M1485 1630 c3 -5 8 -10 11 -10 2 0 4 5 4 10 0 6 -5 10 -11 10 -5 0
-7 -4 -4 -10z"/>
<path d="M2570 1579 c0 -5 5 -7 10 -4 6 3 10 8 10 11 0 2 -4 4 -10 4 -5 0 -10
-5 -10 -11z"/>
<path d="M1920 1522 c0 -7 -10 -13 -22 -13 -19 -1 -20 -2 -4 -6 20 -5 44 12
33 24 -4 3 -7 1 -7 -5z"/>
<path d="M1640 1513 c8 -3 19 -11 23 -17 6 -7 7 -6 4 4 -2 8 -12 16 -23 17
-13 2 -15 1 -4 -4z"/>
<path d="M2490 1509 c0 -5 5 -7 10 -4 6 3 10 8 10 11 0 2 -4 4 -10 4 -5 0 -10
-5 -10 -11z"/>
<path d="M1687 1439 c7 -7 15 -10 18 -7 3 3 -2 9 -12 12 -14 6 -15 5 -6 -5z"/>
<path d="M2220 1304 c0 -8 5 -12 10 -9 6 4 8 11 5 16 -9 14 -15 11 -15 -7z"/>
<path d="M2025 1150 c3 -5 11 -10 16 -10 6 0 7 5 4 10 -3 6 -11 10 -16 10 -6
0 -7 -4 -4 -10z"/>
<path d="M2269 1121 c-13 -11 -21 -22 -18 -26 4 -3 19 5 34 19 32 30 19 35
-16 7z"/>
<path d="M2178 1103 c-10 -2 -18 -11 -18 -19 0 -8 -4 -14 -10 -14 -5 0 -10 5
-10 10 0 6 -7 10 -16 10 -14 0 -14 -3 -4 -15 7 -8 17 -15 23 -15 5 0 16 -8 23
-17 7 -10 14 -13 14 -6 0 6 -5 15 -10 18 -18 11 10 35 41 35 16 0 29 5 29 10
0 10 -30 12 -62 3z"/>
</g>
</svg>
